<?xml version="1.0" encoding="UTF-8"?>
<!DOCTYPE svg PUBLIC "-//W3C//DTD SVG 1.1//EN" "http://www.w3.org/Graphics/SVG/1.1/DTD/svg11.dtd">
<svg xmlns="http://www.w3.org/2000/svg" version="1.1" width="204px" height="115px" style="shape-rendering:geometricPrecision; text-rendering:geometricPrecision; image-rendering:optimizeQuality; fill-rule:evenodd; clip-rule:evenodd" xmlns:xlink="http://www.w3.org/1999/xlink">
<g><path style="opacity:1" fill="#4d4950" d="M -0.5,-0.5 C 5.16667,-0.5 10.8333,-0.5 16.5,-0.5C 13.8731,4.18466 11.7065,9.18466 10,14.5C 6.26004,19.0493 3.26004,24.0493 1,29.5C 0.333333,30.8333 0.333333,32.1667 1,33.5C 1.42244,31.5743 2.5891,30.5743 4.5,30.5C 3.3158,32.7712 2.3158,35.1046 1.5,37.5C 0.166667,38.5 0.166667,39.5 1.5,40.5C 0.833333,41.5 0.166667,42.5 -0.5,43.5C -0.5,28.8333 -0.5,14.1667 -0.5,-0.5 Z"/></g>
<g><path style="opacity:1" fill="#c797be" d="M 129.5,-0.5 C 135.833,-0.5 142.167,-0.5 148.5,-0.5C 149.937,2.43827 151.937,4.93827 154.5,7C 152.292,7.19088 150.292,7.69088 148.5,8.5C 145.5,8.5 142.5,8.5 139.5,8.5C 138.5,8.5 137.5,8.5 136.5,8.5C 135.833,7.16667 134.833,6.16667 133.5,5.5C 132.167,3.5 130.833,1.5 129.5,-0.5 Z"/></g>
<g><path style="opacity:1" fill="#dfd6f1" d="M 77.5,-0.5 C 79.8333,-0.5 82.1667,-0.5 84.5,-0.5C 82.1667,2.16667 79.8333,4.83333 77.5,7.5C 76.0937,7.97306 75.427,8.97306 75.5,10.5C 74.2719,11.3065 73.2719,12.3065 72.5,13.5C 70.602,14.0965 68.9354,14.0965 67.5,13.5C 70.5025,8.51328 73.8358,3.84661 77.5,-0.5 Z"/></g>
<g><path style="opacity:1" fill="#a4c5c1" d="M 25.5,-0.5 C 26.1667,-0.5 26.8333,-0.5 27.5,-0.5C 28.5,0.166667 29.5,0.833333 30.5,1.5C 27.7883,3.60495 24.7883,5.27162 21.5,6.5C 20.7611,6.63101 20.0944,6.46434 19.5,6C 21.7059,3.9633 23.7059,1.79663 25.5,-0.5 Z"/></g>
<g><path style="opacity:1" fill="#5253dc" d="M 86.5,-0.5 C 91.1667,-0.5 95.8333,-0.5 100.5,-0.5C 102.511,1.7513 105.178,3.08464 108.5,3.5C 110.375,1.64453 112.375,1.31119 114.5,2.5C 114.5,3.5 114.5,4.5 114.5,5.5C 111.887,4.56512 109.221,4.39845 106.5,5C 107.056,5.38258 107.389,5.88258 107.5,6.5C 103.367,5.27369 99.367,5.27369 95.5,6.5C 93.4352,6.48285 91.4352,6.14952 89.5,5.5C 87.369,4.68618 85.0356,4.18618 82.5,4C 84.0414,2.62879 85.3747,1.12879 86.5,-0.5 Z"/></g>
<g><path style="opacity:1" fill="#8493e4" d="M 121.5,-0.5 C 122.5,-0.5 123.5,-0.5 124.5,-0.5C 126.959,2.0872 128.626,5.0872 129.5,8.5C 127.265,8.20528 125.265,8.53862 123.5,9.5C 122.662,9.15829 122.328,8.49162 122.5,7.5C 124.527,7.66212 126.527,7.49546 128.5,7C 125.961,4.63029 123.628,2.13029 121.5,-0.5 Z"/></g>
<g><path style="opacity:1" fill="#d8a2e9" d="M 156.5,-0.5 C 158.5,-0.5 160.5,-0.5 162.5,-0.5C 163.966,1.71625 165.633,3.71625 167.5,5.5C 167.557,6.60895 167.89,7.60895 168.5,8.5C 167.448,8.64945 166.448,8.48278 165.5,8C 162.604,4.93425 159.604,2.10092 156.5,-0.5 Z"/></g>
<g><path style="opacity:1" fill="#4a4cc6" d="M 100.5,-0.5 C 107.5,-0.5 114.5,-0.5 121.5,-0.5C 123.628,2.13029 125.961,4.63029 128.5,7C 126.527,7.49546 124.527,7.66212 122.5,7.5C 120.841,4.16701 118.175,2.50034 114.5,2.5C 112.375,1.31119 110.375,1.64453 108.5,3.5C 105.178,3.08464 102.511,1.7513 100.5,-0.5 Z"/></g>
<g><path style="opacity:1" fill="#f1c5f6" d="M 162.5,-0.5 C 163.5,-0.5 164.5,-0.5 165.5,-0.5C 167.081,1.14166 167.747,3.14166 167.5,5.5C 165.633,3.71625 163.966,1.71625 162.5,-0.5 Z"/></g>
<g><path style="opacity:1" fill="#3e2b5e" d="M 55.5,-0.5 C 60.5,-0.5 65.5,-0.5 70.5,-0.5C 70.5,1.83333 70.5,4.16667 70.5,6.5C 69.5,6.5 68.5,6.5 67.5,6.5C 66.9423,5.21009 65.9423,4.37675 64.5,4C 60.623,4.06175 57.623,2.56175 55.5,-0.5 Z"/></g>
<g><path style="opacity:1" fill="#413652" d="M 70.5,-0.5 C 72.8333,-0.5 75.1667,-0.5 77.5,-0.5C 73.8358,3.84661 70.5025,8.51328 67.5,13.5C 66.8333,14.1667 66.1667,14.8333 65.5,15.5C 66.9205,12.7387 67.5871,9.73872 67.5,6.5C 68.5,6.5 69.5,6.5 70.5,6.5C 70.5,4.16667 70.5,1.83333 70.5,-0.5 Z"/></g>
<g><path style="opacity:1" fill="#6d5259" d="M 124.5,-0.5 C 126.167,-0.5 127.833,-0.5 129.5,-0.5C 130.833,1.5 132.167,3.5 133.5,5.5C 133.5,6.5 133.5,7.5 133.5,8.5C 132.167,8.5 130.833,8.5 129.5,8.5C 128.626,5.0872 126.959,2.0872 124.5,-0.5 Z"/></g>
<g><path style="opacity:1" fill="#f3e3f2" d="M 165.5,-0.5 C 166.5,-0.5 167.5,-0.5 168.5,-0.5C 168.833,0.166667 169.167,0.833333 169.5,1.5C 170.086,3.83984 171.086,6.00651 172.5,8C 171.207,8.49001 169.873,8.65668 168.5,8.5C 167.89,7.60895 167.557,6.60895 167.5,5.5C 167.747,3.14166 167.081,1.14166 165.5,-0.5 Z"/></g>
<g><path style="opacity:1" fill="#6c5d84" d="M 183.5,-0.5 C 185.833,-0.5 188.167,-0.5 190.5,-0.5C 189.651,2.68106 187.985,5.34773 185.5,7.5C 182.918,7.97461 180.918,7.30794 179.5,5.5C 181.218,3.77725 182.551,1.77725 183.5,-0.5 Z"/></g>
<g><path style="opacity:1" fill="#271a35" d="M 51.5,-0.5 C 52.8333,-0.5 54.1667,-0.5 55.5,-0.5C 57.623,2.56175 60.623,4.06175 64.5,4C 65.9423,4.37675 66.9423,5.21009 67.5,6.5C 67.5871,9.73872 66.9205,12.7387 65.5,15.5C 64.5592,17.0495 63.8925,18.7162 63.5,20.5C 63.1667,20.5 62.8333,20.5 62.5,20.5C 62.7135,18.8561 62.3802,17.3561 61.5,16C 58.5919,15.3112 55.9252,14.1445 53.5,12.5C 54.2458,11.2638 54.5792,9.93047 54.5,8.5C 57.1113,6.31801 56.6113,4.65135 53,3.5C 52.5899,2.0993 52.0899,0.765972 51.5,-0.5 Z"/></g>
<g><path style="opacity:1" fill="#978699" d="M 169.5,1.5 C 174.013,2.66 175.347,5.32667 173.5,9.5C 172.833,9.5 172.167,9.5 171.5,9.5C 170.5,9.5 169.5,9.5 168.5,9.5C 168.5,9.16667 168.5,8.83333 168.5,8.5C 169.873,8.65668 171.207,8.49001 172.5,8C 171.086,6.00651 170.086,3.83984 169.5,1.5 Z"/></g>
<g><path style="opacity:1" fill="#462f47" d="M 203.5,0.5 C 203.5,3.16667 203.5,5.83333 203.5,8.5C 201.283,7.63137 198.95,7.29803 196.5,7.5C 196.878,9.92095 197.545,12.2543 198.5,14.5C 196.908,13.3984 196.075,14.065 196,16.5C 195.399,14.6412 194.566,14.3079 193.5,15.5C 190.669,13.1676 189.502,10.1676 190,6.5C 191.049,8.10661 192.549,8.77328 194.5,8.5C 195.442,5.58043 196.776,2.91377 198.5,0.5C 200.167,0.5 201.833,0.5 203.5,0.5 Z"/></g>
<g><path style="opacity:1" fill="#6b78f4" d="M 95.5,6.5 C 99.367,5.27369 103.367,5.27369 107.5,6.5C 110.5,8.83333 113.167,11.5 115.5,14.5C 112.907,13.2464 110.573,11.5798 108.5,9.5C 107.466,8.31293 106.133,7.4796 104.5,7C 101.518,6.50204 98.5184,6.33537 95.5,6.5 Z"/></g>
<g><path style="opacity:1" fill="#cc9bcb" d="M 148.5,-0.5 C 151.167,-0.5 153.833,-0.5 156.5,-0.5C 159.604,2.10092 162.604,4.93425 165.5,8C 166.448,8.48278 167.448,8.64945 168.5,8.5C 168.5,8.83333 168.5,9.16667 168.5,9.5C 168.167,9.5 167.833,9.5 167.5,9.5C 166.167,9.5 164.833,9.5 163.5,9.5C 158.405,9.77872 153.405,9.44538 148.5,8.5C 150.292,7.69088 152.292,7.19088 154.5,7C 151.937,4.93827 149.937,2.43827 148.5,-0.5 Z"/></g>
<g><path style="opacity:1" fill="#663e3d" d="M 30.5,1.5 C 31.3088,4.3285 32.3088,7.16183 33.5,10C 33.472,11.0698 33.1386,11.9032 32.5,12.5C 30.6686,10.1547 29.5019,7.488 29,4.5C 25.6517,7.26652 22.1517,8.93319 18.5,9.5C 18.5,8.83333 18.5,8.16667 18.5,7.5C 19.791,7.73731 20.791,7.40397 21.5,6.5C 24.7883,5.27162 27.7883,3.60495 30.5,1.5 Z"/></g>
<g><path style="opacity:1" fill="#3d4a4d" d="M 168.5,-0.5 C 173.5,-0.5 178.5,-0.5 183.5,-0.5C 182.551,1.77725 181.218,3.77725 179.5,5.5C 178.318,8.00922 176.318,9.34255 173.5,9.5C 175.347,5.32667 174.013,2.66 169.5,1.5C 169.167,0.833333 168.833,0.166667 168.5,-0.5 Z"/></g>
<g><path style="opacity:1" fill="#9489e5" d="M 77.5,7.5 C 77.573,9.02694 76.9063,10.0269 75.5,10.5C 75.427,8.97306 76.0937,7.97306 77.5,7.5 Z"/></g>
<g><path style="opacity:1" fill="#e6b9c2" d="M 133.5,5.5 C 134.833,6.16667 135.833,7.16667 136.5,8.5C 133.99,8.92668 131.657,9.59334 129.5,10.5C 128.167,10.1667 126.833,9.83333 125.5,9.5C 125.167,9.5 124.833,9.5 124.5,9.5C 124.167,9.5 123.833,9.5 123.5,9.5C 125.265,8.53862 127.265,8.20528 129.5,8.5C 130.833,8.5 132.167,8.5 133.5,8.5C 133.5,7.5 133.5,6.5 133.5,5.5 Z"/></g>
<g><path style="opacity:1" fill="#dfadbd" d="M 139.5,8.5 C 142.5,8.5 145.5,8.5 148.5,8.5C 153.405,9.44538 158.405,9.77872 163.5,9.5C 162.081,10.4511 160.415,10.7845 158.5,10.5C 157.833,10.5 157.167,10.5 156.5,10.5C 154.784,10.6287 153.117,10.962 151.5,11.5C 147.571,10.1767 143.571,9.17669 139.5,8.5 Z"/></g>
<g><path style="opacity:1" fill="#2c1315" d="M 32.5,12.5 C 31.3995,13.6049 30.7329,14.9382 30.5,16.5C 29.8333,16.5 29.5,16.8333 29.5,17.5C 26.2834,20.4443 23.9501,19.7776 22.5,15.5C 20.4154,16.6469 18.9154,15.9803 18,13.5C 17.6012,13.7284 17.4346,14.0618 17.5,14.5C 16.9569,14.44 16.6236,14.1067 16.5,13.5C 17.8532,12.4763 18.5198,11.143 18.5,9.5C 22.1517,8.93319 25.6517,7.26652 29,4.5C 29.5019,7.488 30.6686,10.1547 32.5,12.5 Z"/></g>
<g><path style="opacity:1" fill="#dea197" d="M 136.5,8.5 C 137.5,8.5 138.5,8.5 139.5,8.5C 143.571,9.17669 147.571,10.1767 151.5,11.5C 148.15,11.6135 144.817,11.9469 141.5,12.5C 137.618,11.2312 133.618,10.5645 129.5,10.5C 131.657,9.59334 133.99,8.92668 136.5,8.5 Z"/></g>
<g><path style="opacity:1" fill="#4c5ac0" d="M 114.5,2.5 C 118.175,2.50034 120.841,4.16701 122.5,7.5C 122.328,8.49162 122.662,9.15829 123.5,9.5C 123.833,9.5 124.167,9.5 124.5,9.5C 125.206,11.6716 126.206,13.6716 127.5,15.5C 120.817,15.1431 116.483,11.8098 114.5,5.5C 114.5,4.5 114.5,3.5 114.5,2.5 Z"/></g>
<g><path style="opacity:1" fill="#483a50" d="M 42.5,-0.5 C 43.1667,-0.5 43.8333,-0.5 44.5,-0.5C 44.5,9.5 44.5,19.5 44.5,29.5C 43.8333,20.1667 43.1667,10.8333 42.5,1.5C 42.5,0.833333 42.5,0.166667 42.5,-0.5 Z"/></g>
<g><path style="opacity:1" fill="#5a4855" d="M 167.5,9.5 C 167.833,9.5 168.167,9.5 168.5,9.5C 169.5,9.5 170.5,9.5 171.5,9.5C 175.231,11.3621 178.897,13.5287 182.5,16C 180.905,18.1019 178.905,19.6019 176.5,20.5C 175.791,19.596 174.791,19.2627 173.5,19.5C 173.165,15.4889 171.165,14.4889 167.5,16.5C 167.5,15.1667 167.5,13.8333 167.5,12.5C 166.325,12.719 165.325,12.3857 164.5,11.5C 165.602,10.8243 166.602,10.1577 167.5,9.5 Z"/></g>
<g><path style="opacity:1" fill="#55595e" d="M 18.5,7.5 C 18.5,8.16667 18.5,8.83333 18.5,9.5C 18.5198,11.143 17.8532,12.4763 16.5,13.5C 16.6236,14.1067 16.9569,14.44 17.5,14.5C 17.634,16.2915 17.3007,17.9582 16.5,19.5C 15.8333,19.5 15.1667,19.5 14.5,19.5C 14.5299,18.5028 14.0299,17.8361 13,17.5C 11.6068,18.6151 10.1068,19.1151 8.5,19C 11.2077,16.3033 13.0411,13.1366 14,9.5C 15.1096,7.96317 16.6096,7.2965 18.5,7.5 Z"/></g>
<g><path style="opacity:1" fill="#170c14" d="M 44.5,-0.5 C 46.8333,-0.5 49.1667,-0.5 51.5,-0.5C 52.0899,0.765972 52.5899,2.0993 53,3.5C 56.6113,4.65135 57.1113,6.31801 54.5,8.5C 52.6208,9.34141 50.6208,9.67474 48.5,9.5C 48.393,11.9032 49.393,13.7365 51.5,15C 51.0426,15.414 50.7093,15.914 50.5,16.5C 51.7161,17.0959 53.0494,17.2626 54.5,17C 57.2359,20.0573 56.7359,22.5573 53,24.5C 52.2125,29.3484 50.5458,33.3484 48,36.5C 47.1398,33.9165 45.9731,31.5832 44.5,29.5C 44.5,19.5 44.5,9.5 44.5,-0.5 Z"/></g>
<g><path style="opacity:1" fill="#556ed8" d="M 89.5,5.5 C 91.4352,6.14952 93.4352,6.48285 95.5,6.5C 94.2584,8.61121 94.2584,10.6112 95.5,12.5C 95.5,12.8333 95.5,13.1667 95.5,13.5C 96.5877,15.5825 97.5877,17.7492 98.5,20C 94.3369,20.8518 91.6703,19.1851 90.5,15C 88.1913,14.2438 86.1913,14.7438 84.5,16.5C 83.8933,16.3764 83.56,16.0431 83.5,15.5C 86.5256,12.7821 88.5256,9.44879 89.5,5.5 Z"/></g>
<g><path style="opacity:1" fill="#b8b8f3" d="M 104.5,8.5 C 104.92,10.0936 105.586,11.5936 106.5,13C 103.456,16.2225 100.289,16.0558 97,12.5C 96.51,11.2068 96.3433,9.87344 96.5,8.5C 99.005,7.50333 101.672,7.50333 104.5,8.5 Z"/></g>
<g><path style="opacity:1" fill="#7d96f2" d="M 95.5,6.5 C 98.5184,6.33537 101.518,6.50204 104.5,7C 106.133,7.4796 107.466,8.31293 108.5,9.5C 108.851,12.2377 109.518,14.9044 110.5,17.5C 110.145,18.5223 109.478,19.189 108.5,19.5C 108.002,16.5131 107.502,13.5131 107,10.5C 106.292,9.61947 105.458,8.9528 104.5,8.5C 101.672,7.50333 99.005,7.50333 96.5,8.5C 95.5655,9.56764 95.2322,10.901 95.5,12.5C 94.2584,10.6112 94.2584,8.61121 95.5,6.5 Z"/></g>
<g><path style="opacity:1" fill="#936f6f" d="M 156.5,10.5 C 157.167,10.5 157.833,10.5 158.5,10.5C 159.501,13.8843 159.168,17.2176 157.5,20.5C 158.025,21.1924 158.692,21.6924 159.5,22C 156.225,22.9286 153.225,22.4286 150.5,20.5C 149.833,21.1667 149.167,21.8333 148.5,22.5C 147.313,21.3473 146.313,21.3473 145.5,22.5C 143.113,22.0879 141.113,21.0879 139.5,19.5C 142.814,20.7074 146.148,20.7074 149.5,19.5C 150.167,17.1667 150.833,14.8333 151.5,12.5C 153.698,12.8799 155.365,12.2132 156.5,10.5 Z"/></g>
<g><path style="opacity:1" fill="#d5c0f9" d="M 67.5,13.5 C 68.9354,14.0965 70.602,14.0965 72.5,13.5C 70.1676,18.1615 67.8343,22.8282 65.5,27.5C 64.8186,29.1585 63.9853,30.8251 63,32.5C 62.6432,28.4896 62.8099,24.4896 63.5,20.5C 63.8925,18.7162 64.5592,17.0495 65.5,15.5C 66.1667,14.8333 66.8333,14.1667 67.5,13.5 Z"/></g>
<g><path style="opacity:1" fill="#637fec" d="M 108.5,9.5 C 110.573,11.5798 112.907,13.2464 115.5,14.5C 115.842,15.3382 116.508,15.6716 117.5,15.5C 116.868,18.4919 115.201,19.1586 112.5,17.5C 111.611,19.007 110.611,20.3403 109.5,21.5C 108.662,21.1583 108.328,20.4916 108.5,19.5C 109.478,19.189 110.145,18.5223 110.5,17.5C 109.518,14.9044 108.851,12.2377 108.5,9.5 Z"/></g>
<g><path style="opacity:1" fill="#af8176" d="M 125.5,9.5 C 126.833,9.83333 128.167,10.1667 129.5,10.5C 133.618,10.5645 137.618,11.2312 141.5,12.5C 144.817,11.9469 148.15,11.6135 151.5,11.5C 153.117,10.962 154.784,10.6287 156.5,10.5C 155.365,12.2132 153.698,12.8799 151.5,12.5C 150.833,14.8333 150.167,17.1667 149.5,19.5C 146.148,20.7074 142.814,20.7074 139.5,19.5C 134.12,17.1455 129.454,13.8121 125.5,9.5 Z"/></g>
<g><path style="opacity:1" fill="#1d0f15" d="M 29.5,17.5 C 29.3267,24.155 26.9934,25.4884 22.5,21.5C 21.4728,22.7914 20.4728,22.7914 19.5,21.5C 19.0269,20.0937 18.0269,19.427 16.5,19.5C 17.3007,17.9582 17.634,16.2915 17.5,14.5C 17.4346,14.0618 17.6012,13.7284 18,13.5C 18.9154,15.9803 20.4154,16.6469 22.5,15.5C 23.9501,19.7776 26.2834,20.4443 29.5,17.5 Z"/></g>
<g><path style="opacity:1" fill="#5850ce" d="M 84.5,-0.5 C 85.1667,-0.5 85.8333,-0.5 86.5,-0.5C 85.3747,1.12879 84.0414,2.62879 82.5,4C 85.0356,4.18618 87.369,4.68618 89.5,5.5C 86.6802,5.24751 84.0135,5.74751 81.5,7C 78.3641,12.1076 75.3641,17.2742 72.5,22.5C 70.8917,26.0427 68.5584,29.0427 65.5,31.5C 65.5,30.1667 65.5,28.8333 65.5,27.5C 67.8343,22.8282 70.1676,18.1615 72.5,13.5C 73.2719,12.3065 74.2719,11.3065 75.5,10.5C 76.9063,10.0269 77.573,9.02694 77.5,7.5C 79.8333,4.83333 82.1667,2.16667 84.5,-0.5 Z"/></g>
<g><path style="opacity:1" fill="#6355f1" d="M 114.5,5.5 C 116.483,11.8098 120.817,15.1431 127.5,15.5C 127.833,15.5 128.167,15.5 128.5,15.5C 128.971,17.5786 129.637,19.5786 130.5,21.5C 131.388,24.7138 132.721,27.7138 134.5,30.5C 133.5,30.5 132.5,30.5 131.5,30.5C 129.265,27.9825 127.765,24.9825 127,21.5C 125.89,19.9632 124.39,19.2965 122.5,19.5C 121.421,17.457 119.754,16.1237 117.5,15.5C 116.508,15.6716 115.842,15.3382 115.5,14.5C 113.167,11.5 110.5,8.83333 107.5,6.5C 107.389,5.88258 107.056,5.38258 106.5,5C 109.221,4.39845 111.887,4.56512 114.5,5.5 Z"/></g>
<g><path style="opacity:1" fill="#736288" d="M 27.5,-0.5 C 31.5,-0.5 35.5,-0.5 39.5,-0.5C 38.8333,6.83333 38.1667,14.1667 37.5,21.5C 35.5328,21.2606 33.6995,21.5939 32,22.5C 31.502,25.4816 31.3354,28.4816 31.5,31.5C 31.1667,31.5 30.8333,31.5 30.5,31.5C 30.5,26.5 30.5,21.5 30.5,16.5C 30.7329,14.9382 31.3995,13.6049 32.5,12.5C 33.1386,11.9032 33.472,11.0698 33.5,10C 32.3088,7.16183 31.3088,4.3285 30.5,1.5C 29.5,0.833333 28.5,0.166667 27.5,-0.5 Z"/></g>
<g><path style="opacity:1" fill="#695968" d="M 176.5,20.5 C 176.201,22.4553 175.201,23.7886 173.5,24.5C 170.287,24.81 167.287,24.4767 164.5,23.5C 166.113,21.5395 167.113,19.2061 167.5,16.5C 171.165,14.4889 173.165,15.4889 173.5,19.5C 174.791,19.2627 175.791,19.596 176.5,20.5 Z"/></g>
<g><path style="opacity:1" fill="#5e4361" d="M 198.5,14.5 C 199.929,17.6963 201.595,20.6963 203.5,23.5C 203.5,26.1667 203.5,28.8333 203.5,31.5C 201.408,31.4386 199.908,30.4386 199,28.5C 197.709,23.92 195.876,19.5866 193.5,15.5C 194.566,14.3079 195.399,14.6412 196,16.5C 196.075,14.065 196.908,13.3984 198.5,14.5 Z"/></g>
<g><path style="opacity:1" fill="#81aaec" d="M 96.5,8.5 C 96.3433,9.87344 96.51,11.2068 97,12.5C 100.289,16.0558 103.456,16.2225 106.5,13C 105.586,11.5936 104.92,10.0936 104.5,8.5C 105.458,8.9528 106.292,9.61947 107,10.5C 107.502,13.5131 108.002,16.5131 108.5,19.5C 106.598,20.5109 104.598,20.6776 102.5,20C 100.272,17.7007 97.9388,15.5341 95.5,13.5C 95.5,13.1667 95.5,12.8333 95.5,12.5C 95.2322,10.901 95.5655,9.56764 96.5,8.5 Z"/></g>
<g><path style="opacity:1" fill="#371f29" d="M 203.5,8.5 C 203.5,13.5 203.5,18.5 203.5,23.5C 201.595,20.6963 199.929,17.6963 198.5,14.5C 197.545,12.2543 196.878,9.92095 196.5,7.5C 198.95,7.29803 201.283,7.63137 203.5,8.5 Z"/></g>
<g><path style="opacity:1" fill="#836771" d="M 163.5,9.5 C 164.833,9.5 166.167,9.5 167.5,9.5C 166.602,10.1577 165.602,10.8243 164.5,11.5C 165.325,12.3857 166.325,12.719 167.5,12.5C 167.5,13.8333 167.5,15.1667 167.5,16.5C 167.113,19.2061 166.113,21.5395 164.5,23.5C 162.712,23.2148 161.045,23.5481 159.5,24.5C 160.376,25.2508 161.376,25.7508 162.5,26C 160.866,26.4935 159.199,26.6602 157.5,26.5C 152.729,27.2582 148.729,25.9249 145.5,22.5C 146.313,21.3473 147.313,21.3473 148.5,22.5C 149.167,21.8333 149.833,21.1667 150.5,20.5C 153.225,22.4286 156.225,22.9286 159.5,22C 158.692,21.6924 158.025,21.1924 157.5,20.5C 159.168,17.2176 159.501,13.8843 158.5,10.5C 160.415,10.7845 162.081,10.4511 163.5,9.5 Z"/></g>
<g><path style="opacity:1" fill="#5a7ad3" d="M 95.5,13.5 C 97.9388,15.5341 100.272,17.7007 102.5,20C 104.598,20.6776 106.598,20.5109 108.5,19.5C 108.328,20.4916 108.662,21.1583 109.5,21.5C 109.5,22.8333 109.5,24.1667 109.5,25.5C 108.5,25.5 107.5,25.5 106.5,25.5C 107.011,28.0215 108.011,30.3549 109.5,32.5C 108.167,32.5 106.833,32.5 105.5,32.5C 105.662,30.4727 105.495,28.4727 105,26.5C 104.163,28.0074 102.996,28.5074 101.5,28C 100.449,26.6152 99.1161,25.6152 97.5,25C 98.2797,23.927 98.113,22.7604 97,21.5C 96.0723,23.3348 94.9056,23.6682 93.5,22.5C 91.1099,20.7334 89.4432,18.4001 88.5,15.5C 88.0969,19.7927 88.5969,24.1261 90,28.5C 91.0674,29.1905 92.2341,29.6905 93.5,30C 92.3333,30.5 91.5,31.3333 91,32.5C 89.2215,31.5209 87.5548,31.8542 86,33.5C 85.0192,30.3113 83.6859,29.978 82,32.5C 80.3866,31.3777 79.2199,31.8777 78.5,34C 79.056,34.3826 79.3893,34.8826 79.5,35.5C 78.8501,35.8039 78.1835,36.1373 77.5,36.5C 76.8243,35.3984 76.1577,34.3984 75.5,33.5C 75.5,32.5 75.5,31.5 75.5,30.5C 76.1174,30.3893 76.6174,30.056 77,29.5C 78.3134,25.5796 79.3134,21.5796 80,17.5C 81.1127,16.695 82.2794,16.0283 83.5,15.5C 83.56,16.0431 83.8933,16.3764 84.5,16.5C 86.1913,14.7438 88.1913,14.2438 90.5,15C 91.6703,19.1851 94.3369,20.8518 98.5,20C 97.5877,17.7492 96.5877,15.5825 95.5,13.5 Z"/></g>
<g><path style="opacity:1" fill="#3a2235" d="M 190.5,-0.5 C 194.833,-0.5 199.167,-0.5 203.5,-0.5C 203.5,-0.166667 203.5,0.166667 203.5,0.5C 201.833,0.5 200.167,0.5 198.5,0.5C 196.776,2.91377 195.442,5.58043 194.5,8.5C 192.549,8.77328 191.049,8.10661 190,6.5C 189.502,10.1676 190.669,13.1676 193.5,15.5C 195.876,19.5866 197.709,23.92 199,28.5C 199.908,30.4386 201.408,31.4386 203.5,31.5C 203.5,42.1667 203.5,52.8333 203.5,63.5C 199.082,61.9134 197.415,63.58 198.5,68.5C 200.216,68.6287 201.883,68.962 203.5,69.5C 203.5,69.8333 203.5,70.1667 203.5,70.5C 199.031,69.5655 194.697,68.2321 190.5,66.5C 193.319,64.1965 196.319,62.0299 199.5,60C 198.552,59.5172 197.552,59.3505 196.5,59.5C 196.5,57.1667 196.5,54.8333 196.5,52.5C 195.526,50.9147 194.026,49.9147 192,49.5C 191.362,48.3914 190.862,47.2247 190.5,46C 191.687,43.2764 192.353,40.4431 192.5,37.5C 193.167,37.1667 193.833,36.8333 194.5,36.5C 196.305,35.7629 197.971,34.7629 199.5,33.5C 193.035,32.4283 186.702,31.4283 180.5,30.5C 185.294,31.0945 188.961,29.4278 191.5,25.5C 190.777,19.6938 187.777,15.5271 182.5,13C 188.127,14.4131 188.794,13.0797 184.5,9C 185.056,8.61742 185.389,8.11742 185.5,7.5C 187.985,5.34773 189.651,2.68106 190.5,-0.5 Z"/></g>
<g><path style="opacity:1" fill="#7b9799" d="M 16.5,-0.5 C 19.5,-0.5 22.5,-0.5 25.5,-0.5C 23.7059,1.79663 21.7059,3.9633 19.5,6C 20.0944,6.46434 20.7611,6.63101 21.5,6.5C 20.791,7.40397 19.791,7.73731 18.5,7.5C 16.6096,7.2965 15.1096,7.96317 14,9.5C 13.0411,13.1366 11.2077,16.3033 8.5,19C 10.1068,19.1151 11.6068,18.6151 13,17.5C 14.0299,17.8361 14.5299,18.5028 14.5,19.5C 11.5634,20.4718 8.89669,21.8052 6.5,23.5C 5.7321,25.7146 5.06543,28.0479 4.5,30.5C 2.5891,30.5743 1.42244,31.5743 1,33.5C 0.333333,32.1667 0.333333,30.8333 1,29.5C 3.26004,24.0493 6.26004,19.0493 10,14.5C 11.7065,9.18466 13.8731,4.18466 16.5,-0.5 Z"/></g>
<g><path style="opacity:1" fill="#5c7fd0" d="M 105.5,32.5 C 103.806,35.5893 104.472,38.0893 107.5,40C 106.944,40.3826 106.611,40.8826 106.5,41.5C 104.784,41.3713 103.117,41.038 101.5,40.5C 99.3618,40.0617 97.0285,39.8951 94.5,40C 90.1093,38.5922 85.9427,36.7588 82,34.5C 81.0979,34.7432 80.2646,35.0766 79.5,35.5C 79.3893,34.8826 79.056,34.3826 78.5,34C 79.2199,31.8777 80.3866,31.3777 82,32.5C 83.6859,29.978 85.0192,30.3113 86,33.5C 87.5548,31.8542 89.2215,31.5209 91,32.5C 91.5,31.3333 92.3333,30.5 93.5,30C 92.2341,29.6905 91.0674,29.1905 90,28.5C 88.5969,24.1261 88.0969,19.7927 88.5,15.5C 89.4432,18.4001 91.1099,20.7334 93.5,22.5C 94.9056,23.6682 96.0723,23.3348 97,21.5C 98.113,22.7604 98.2797,23.927 97.5,25C 99.1161,25.6152 100.449,26.6152 101.5,28C 102.996,28.5074 104.163,28.0074 105,26.5C 105.495,28.4727 105.662,30.4727 105.5,32.5 Z"/></g>
<g><path style="opacity:1" fill="#403e99" d="M 128.5,15.5 C 132.167,18.5 135.5,21.8333 138.5,25.5C 136.876,25.6399 135.71,24.9733 135,23.5C 133.989,24.3366 132.822,24.67 131.5,24.5C 131.737,23.209 131.404,22.209 130.5,21.5C 129.637,19.5786 128.971,17.5786 128.5,15.5 Z"/></g>
<g><path style="opacity:1" fill="#402a3c" d="M 179.5,5.5 C 180.918,7.30794 182.918,7.97461 185.5,7.5C 185.389,8.11742 185.056,8.61742 184.5,9C 188.794,13.0797 188.127,14.4131 182.5,13C 187.777,15.5271 190.777,19.6938 191.5,25.5C 188.961,29.4278 185.294,31.0945 180.5,30.5C 178.958,29.6993 177.292,29.366 175.5,29.5C 175.158,28.6618 174.492,28.3284 173.5,28.5C 173.5,27.1667 173.5,25.8333 173.5,24.5C 175.201,23.7886 176.201,22.4553 176.5,20.5C 178.905,19.6019 180.905,18.1019 182.5,16C 178.897,13.5287 175.231,11.3621 171.5,9.5C 172.167,9.5 172.833,9.5 173.5,9.5C 176.318,9.34255 178.318,8.00922 179.5,5.5 Z"/></g>
<g><path style="opacity:1" fill="#21101f" d="M 14.5,19.5 C 15.1667,19.5 15.8333,19.5 16.5,19.5C 18.0269,19.427 19.0269,20.0937 19.5,21.5C 18.2632,22.9649 17.2632,24.6316 16.5,26.5C 15.4005,32.5601 12.2338,33.8935 7,30.5C 6.50335,28.1902 6.33669,25.8568 6.5,23.5C 8.89669,21.8052 11.5634,20.4718 14.5,19.5 Z"/></g>
<g><path style="opacity:1" fill="#342733" d="M 30.5,16.5 C 30.5,21.5 30.5,26.5 30.5,31.5C 30.5,33.5 30.5,35.5 30.5,37.5C 30.5654,37.9382 30.3988,38.2716 30,38.5C 29.6667,37.8333 29.3333,37.1667 29,36.5C 28.3918,38.0664 27.5585,39.3998 26.5,40.5C 26.5,39.5 26.5,38.5 26.5,37.5C 27.1239,37.0831 27.4573,36.4164 27.5,35.5C 26.8367,32.1942 26.3367,28.8608 26,25.5C 24.2245,24.4639 22.3911,24.4639 20.5,25.5C 19.8333,25.5 19.5,25.8333 19.5,26.5C 18.5,26.5 17.5,26.5 16.5,26.5C 17.2632,24.6316 18.2632,22.9649 19.5,21.5C 20.4728,22.7914 21.4728,22.7914 22.5,21.5C 26.9934,25.4884 29.3267,24.155 29.5,17.5C 29.5,16.8333 29.8333,16.5 30.5,16.5 Z"/></g>
<g><path style="opacity:1" fill="#765d78" d="M 42.5,1.5 C 43.1667,10.8333 43.8333,20.1667 44.5,29.5C 45.4222,33.1119 46.0889,36.7785 46.5,40.5C 47.4171,43.0048 47.4171,45.3382 46.5,47.5C 45.0937,47.0269 44.427,46.0269 44.5,44.5C 43.8106,43.2264 42.9772,43.2264 42,44.5C 40.6077,39.8953 37.7744,38.5619 33.5,40.5C 33.3862,38.2821 32.7196,36.2821 31.5,34.5C 33.4716,36.3185 35.8049,37.3185 38.5,37.5C 38.6436,33.6255 38.3102,29.7921 37.5,26C 38.9224,24.5238 40.4224,22.3571 42,19.5C 42.4995,13.5092 42.6662,7.50924 42.5,1.5 Z"/></g>
<g><path style="opacity:1" fill="#8a75a1" d="M 39.5,-0.5 C 40.5,-0.5 41.5,-0.5 42.5,-0.5C 42.5,0.166667 42.5,0.833333 42.5,1.5C 42.6662,7.50924 42.4995,13.5092 42,19.5C 40.4224,22.3571 38.9224,24.5238 37.5,26C 38.3102,29.7921 38.6436,33.6255 38.5,37.5C 35.8049,37.3185 33.4716,36.3185 31.5,34.5C 31.5,33.5 31.5,32.5 31.5,31.5C 31.3354,28.4816 31.502,25.4816 32,22.5C 33.6995,21.5939 35.5328,21.2606 37.5,21.5C 38.1667,14.1667 38.8333,6.83333 39.5,-0.5 Z"/></g>
<g><path style="opacity:1" fill="#495ebb" d="M 89.5,5.5 C 88.5256,9.44879 86.5256,12.7821 83.5,15.5C 82.2794,16.0283 81.1127,16.695 80,17.5C 79.3134,21.5796 78.3134,25.5796 77,29.5C 76.6174,30.056 76.1174,30.3893 75.5,30.5C 76.4612,27.6717 76.2946,25.0051 75,22.5C 74.1482,23.5707 73.3149,24.5707 72.5,25.5C 72.5,24.5 72.5,23.5 72.5,22.5C 75.3641,17.2742 78.3641,12.1076 81.5,7C 84.0135,5.74751 86.6802,5.24751 89.5,5.5 Z"/></g>
<g><path style="opacity:1" fill="#5a4155" d="M 164.5,23.5 C 167.287,24.4767 170.287,24.81 173.5,24.5C 173.5,25.8333 173.5,27.1667 173.5,28.5C 167.949,28.473 162.616,27.8063 157.5,26.5C 159.199,26.6602 160.866,26.4935 162.5,26C 161.376,25.7508 160.376,25.2508 159.5,24.5C 161.045,23.5481 162.712,23.2148 164.5,23.5 Z"/></g>
<g><path style="opacity:1" fill="#3b1c1c" d="M 124.5,9.5 C 124.833,9.5 125.167,9.5 125.5,9.5C 129.454,13.8121 134.12,17.1455 139.5,19.5C 141.113,21.0879 143.113,22.0879 145.5,22.5C 147.124,25.7901 149.457,28.4567 152.5,30.5C 152.473,32.1993 151.806,33.5326 150.5,34.5C 149.833,34.1667 149.167,33.8333 148.5,33.5C 148.167,32.8333 147.833,32.1667 147.5,31.5C 145.272,30.6229 143.272,29.2896 141.5,27.5C 140.5,26.8333 139.5,26.1667 138.5,25.5C 135.5,21.8333 132.167,18.5 128.5,15.5C 128.167,15.5 127.833,15.5 127.5,15.5C 126.206,13.6716 125.206,11.6716 124.5,9.5 Z"/></g>
<g><path style="opacity:1" fill="#4e5dc6" d="M 117.5,15.5 C 119.754,16.1237 121.421,17.457 122.5,19.5C 122.264,22.6085 122.597,25.6085 123.5,28.5C 121.047,27.1835 118.38,26.3502 115.5,26C 114.266,21.8743 112.599,22.0409 110.5,26.5C 112.185,29.048 111.852,31.048 109.5,32.5C 108.011,30.3549 107.011,28.0215 106.5,25.5C 107.5,25.5 108.5,25.5 109.5,25.5C 109.5,24.1667 109.5,22.8333 109.5,21.5C 110.611,20.3403 111.611,19.007 112.5,17.5C 115.201,19.1586 116.868,18.4919 117.5,15.5 Z"/></g>
<g><path style="opacity:1" fill="#643957" d="M 26.5,37.5 C 25.9002,36.1001 24.9002,35.1001 23.5,34.5C 23.6107,33.8826 23.944,33.3826 24.5,33C 23.0314,30.5623 21.6981,28.0623 20.5,25.5C 22.3911,24.4639 24.2245,24.4639 26,25.5C 26.3367,28.8608 26.8367,32.1942 27.5,35.5C 27.4573,36.4164 27.1239,37.0831 26.5,37.5 Z"/></g>
<g><path style="opacity:1" fill="#473037" d="M 145.5,22.5 C 148.729,25.9249 152.729,27.2582 157.5,26.5C 162.616,27.8063 167.949,28.473 173.5,28.5C 174.492,28.3284 175.158,28.6618 175.5,29.5C 169.517,29.1503 163.684,29.817 158,31.5C 156.122,31.3038 154.288,30.9705 152.5,30.5C 149.457,28.4567 147.124,25.7901 145.5,22.5 Z"/></g>
<g><path style="opacity:1" fill="#211525" d="M 54.5,8.5 C 54.5792,9.93047 54.2458,11.2638 53.5,12.5C 55.9252,14.1445 58.5919,15.3112 61.5,16C 62.3802,17.3561 62.7135,18.8561 62.5,20.5C 61.8991,23.9679 60.8991,27.3012 59.5,30.5C 58.6851,31.4293 57.8518,32.4293 57,33.5C 56.1782,41.0118 56.3448,48.3451 57.5,55.5C 57.5,56.8333 57.5,58.1667 57.5,59.5C 57.6633,61.8568 57.4966,64.1902 57,66.5C 56.6174,65.944 56.1174,65.6107 55.5,65.5C 52.5257,57.3887 51.6923,49.0554 53,40.5C 52.6924,39.6919 52.1924,39.0253 51.5,38.5C 49.8035,39.3636 48.6368,40.6969 48,42.5C 47.7216,41.5842 47.2216,40.9175 46.5,40.5C 46.0889,36.7785 45.4222,33.1119 44.5,29.5C 45.9731,31.5832 47.1398,33.9165 48,36.5C 50.5458,33.3484 52.2125,29.3484 53,24.5C 56.7359,22.5573 57.2359,20.0573 54.5,17C 53.0494,17.2626 51.7161,17.0959 50.5,16.5C 50.7093,15.914 51.0426,15.414 51.5,15C 49.393,13.7365 48.393,11.9032 48.5,9.5C 50.6208,9.67474 52.6208,9.34141 54.5,8.5 Z"/></g>
<g><path style="opacity:1" fill="#435cb5" d="M 123.5,28.5 C 124.167,29.5 124.833,30.5 125.5,31.5C 123.983,31.5106 122.816,32.1772 122,33.5C 120.103,31.3347 117.936,30.6681 115.5,31.5C 117.092,33.2249 116.758,34.2249 114.5,34.5C 112.302,34.8799 110.635,34.2132 109.5,32.5C 111.852,31.048 112.185,29.048 110.5,26.5C 112.599,22.0409 114.266,21.8743 115.5,26C 118.38,26.3502 121.047,27.1835 123.5,28.5 Z"/></g>
<g><path style="opacity:1" fill="#6062ea" d="M 122.5,19.5 C 124.39,19.2965 125.89,19.9632 127,21.5C 127.765,24.9825 129.265,27.9825 131.5,30.5C 132.242,32.4258 133.242,34.2591 134.5,36C 133.756,37.0386 132.756,37.5386 131.5,37.5C 130.522,37.189 129.855,36.5223 129.5,35.5C 130.742,32.0699 129.409,30.7366 125.5,31.5C 124.833,30.5 124.167,29.5 123.5,28.5C 122.597,25.6085 122.264,22.6085 122.5,19.5 Z"/></g>
<g><path style="opacity:1" fill="#404d9d" d="M 138.5,25.5 C 139.5,26.1667 140.5,26.8333 141.5,27.5C 142.167,32.5 142.833,37.5 143.5,42.5C 142.609,43.1098 141.609,43.4431 140.5,43.5C 141.573,41.3469 141.573,39.3469 140.5,37.5C 140.678,33.8776 140.011,30.5443 138.5,27.5C 138.5,26.8333 138.5,26.1667 138.5,25.5 Z"/></g>
<g><path style="opacity:1" fill="#241629" d="M 141.5,27.5 C 143.272,29.2896 145.272,30.6229 147.5,31.5C 146.403,36.0126 146.403,40.6792 147.5,45.5C 147.448,47.9029 147.781,50.2362 148.5,52.5C 147.167,52.5 145.833,52.5 144.5,52.5C 143.793,49.2139 143.46,45.8806 143.5,42.5C 142.833,37.5 142.167,32.5 141.5,27.5 Z"/></g>
<g><path style="opacity:1" fill="#29393b" d="M 6.5,23.5 C 6.33669,25.8568 6.50335,28.1902 7,30.5C 12.2338,33.8935 15.4005,32.5601 16.5,26.5C 17.5,26.5 18.5,26.5 19.5,26.5C 18.2141,29.117 16.5475,31.4504 14.5,33.5C 10.6142,36.2756 6.28084,37.609 1.5,37.5C 2.3158,35.1046 3.3158,32.7712 4.5,30.5C 5.06543,28.0479 5.7321,25.7146 6.5,23.5 Z"/></g>
<g><path style="opacity:1" fill="#0b0a0d" d="M 14.5,33.5 C 14.7413,35.8863 14.0746,37.8863 12.5,39.5C 10.7739,41.8201 10.1072,44.4867 10.5,47.5C 10.5,48.1667 10.5,48.8333 10.5,49.5C 7.86047,46.1938 4.86047,43.1938 1.5,40.5C 0.166667,39.5 0.166667,38.5 1.5,37.5C 6.28084,37.609 10.6142,36.2756 14.5,33.5 Z"/></g>
<g><path style="opacity:1" fill="#3a314a" d="M 59.5,30.5 C 58.9492,33.8067 58.6159,37.1401 58.5,40.5C 57.5128,45.3054 57.1795,50.3054 57.5,55.5C 56.3448,48.3451 56.1782,41.0118 57,33.5C 57.8518,32.4293 58.6851,31.4293 59.5,30.5 Z"/></g>
<g><path style="opacity:1" fill="#3a5c99" d="M 125.5,31.5 C 125.44,34.021 126.106,36.3543 127.5,38.5C 126.54,40.4771 125.54,42.4771 124.5,44.5C 127.777,45.4793 128.11,46.8127 125.5,48.5C 121.961,45.2013 117.961,44.2013 113.5,45.5C 110.555,41.5155 110.888,37.8488 114.5,34.5C 116.758,34.2249 117.092,33.2249 115.5,31.5C 117.936,30.6681 120.103,31.3347 122,33.5C 122.816,32.1772 123.983,31.5106 125.5,31.5 Z"/></g>
<g><path style="opacity:1" fill="#28161f" d="M 175.5,29.5 C 177.292,29.366 178.958,29.6993 180.5,30.5C 186.702,31.4283 193.035,32.4283 199.5,33.5C 197.971,34.7629 196.305,35.7629 194.5,36.5C 195.087,35.2334 195.087,34.2334 194.5,33.5C 193.166,35.4168 191.333,36.4168 189,36.5C 183.009,34.3076 177.676,32.3076 173,30.5C 169.397,30.2709 167.564,31.9376 167.5,35.5C 163.184,36.7258 158.851,38.0591 154.5,39.5C 161.247,41.4086 167.58,44.0753 173.5,47.5C 173.5,47.8333 173.5,48.1667 173.5,48.5C 167.6,48.8828 161.933,49.8828 156.5,51.5C 156.167,51.5 155.833,51.5 155.5,51.5C 154.5,51.5 153.5,51.5 152.5,51.5C 152.255,46.9464 152.588,42.4464 153.5,38C 152.456,36.8261 151.456,35.6594 150.5,34.5C 151.806,33.5326 152.473,32.1993 152.5,30.5C 154.288,30.9705 156.122,31.3038 158,31.5C 163.684,29.817 169.517,29.1503 175.5,29.5 Z"/></g>
<g><path style="opacity:1" fill="#93acad" d="M 20.5,34.5 C 19.3664,37.3704 18.6997,40.3704 18.5,43.5C 17.8333,43.5 17.1667,43.5 16.5,43.5C 15.9974,37.8319 17.4974,32.8319 21,28.5C 21.1805,30.4884 21.0138,32.4884 20.5,34.5 Z"/></g>
<g><path style="opacity:1" fill="#6086da" d="M 75.5,33.5 C 76.1577,34.3984 76.8243,35.3984 77.5,36.5C 78.1835,36.1373 78.8501,35.8039 79.5,35.5C 80.2646,35.0766 81.0979,34.7432 82,34.5C 85.9427,36.7588 90.1093,38.5922 94.5,40C 97.0285,39.8951 99.3618,40.0617 101.5,40.5C 101.671,43.7973 101.005,44.1306 99.5,41.5C 97.0958,42.0079 96.4291,43.1745 97.5,45C 96.1328,47.3015 95.4661,49.8015 95.5,52.5C 92.5819,50.1229 90.5819,47.1229 89.5,43.5C 86.7024,43.3804 83.7024,42.7138 80.5,41.5C 78.6746,42.6511 76.6746,43.3178 74.5,43.5C 75.0888,47.2668 75.0888,50.9335 74.5,54.5C 74.5,55.8333 74.5,57.1667 74.5,58.5C 73.1667,57.8333 71.8333,57.1667 70.5,56.5C 70.5,56.1667 70.5,55.8333 70.5,55.5C 70.5,54.8333 70.5,54.1667 70.5,53.5C 71.9845,46.7453 73.6511,40.0786 75.5,33.5 Z"/></g>
<g><path style="opacity:1" fill="#a46e7a" d="M 20.5,34.5 C 21.5,34.5 22.5,34.5 23.5,34.5C 24.9002,35.1001 25.9002,36.1001 26.5,37.5C 26.5,38.5 26.5,39.5 26.5,40.5C 24.6117,42.7938 23.2784,45.4605 22.5,48.5C 20.2918,49.8936 18.7918,51.8936 18,54.5C 17.5172,53.552 17.3505,52.552 17.5,51.5C 18.2653,48.9039 18.5987,46.2372 18.5,43.5C 18.6997,40.3704 19.3664,37.3704 20.5,34.5 Z"/></g>
<g><path style="opacity:1" fill="#637fda" d="M 101.5,40.5 C 103.117,41.038 104.784,41.3713 106.5,41.5C 105.972,42.7206 105.305,43.8873 104.5,45C 105.634,46.016 105.301,46.6827 103.5,47C 104.328,47.9147 105.328,48.5814 106.5,49C 104.822,53.4901 101.822,55.3234 97.5,54.5C 96.8333,53.8333 96.1667,53.1667 95.5,52.5C 95.4661,49.8015 96.1328,47.3015 97.5,45C 96.4291,43.1745 97.0958,42.0079 99.5,41.5C 101.005,44.1306 101.671,43.7973 101.5,40.5 Z"/></g>
<g><path style="opacity:1" fill="#9e6fa1" d="M 147.5,31.5 C 147.833,32.1667 148.167,32.8333 148.5,33.5C 148.5,35.8333 148.5,38.1667 148.5,40.5C 149.516,44.1102 150.016,47.7769 150,51.5C 149.155,49.3885 148.322,47.3885 147.5,45.5C 146.403,40.6792 146.403,36.0126 147.5,31.5 Z"/></g>
<g><path style="opacity:1" fill="#4868b7" d="M 75.5,30.5 C 75.5,31.5 75.5,32.5 75.5,33.5C 73.6511,40.0786 71.9845,46.7453 70.5,53.5C 69.3467,47.3471 69.18,41.0137 70,34.5C 70.4061,31.2578 71.2395,28.2578 72.5,25.5C 73.3149,24.5707 74.1482,23.5707 75,22.5C 76.2946,25.0051 76.4612,27.6717 75.5,30.5 Z"/></g>
<g><path style="opacity:1" fill="#5d7aca" d="M 105.5,32.5 C 106.833,32.5 108.167,32.5 109.5,32.5C 110.635,34.2132 112.302,34.8799 114.5,34.5C 110.888,37.8488 110.555,41.5155 113.5,45.5C 113.67,46.8221 113.337,47.9887 112.5,49C 114.437,49.1216 115.77,49.955 116.5,51.5C 115.792,53.3779 114.626,55.0445 113,56.5C 112.798,54.7444 112.298,53.0777 111.5,51.5C 108.602,54.5206 107.269,58.1873 107.5,62.5C 106.37,64.3146 105.704,66.3146 105.5,68.5C 106.5,68.5 107.5,68.5 108.5,68.5C 108.369,69.2389 108.536,69.9056 109,70.5C 110.652,71.3994 112.152,72.3994 113.5,73.5C 112.167,73.5 110.833,73.5 109.5,73.5C 106.352,70.5293 103.685,67.196 101.5,63.5C 102.052,61.1619 103.052,58.8286 104.5,56.5C 102.5,56.5 100.5,56.5 98.5,56.5C 98.1667,55.8333 97.8333,55.1667 97.5,54.5C 101.822,55.3234 104.822,53.4901 106.5,49C 105.328,48.5814 104.328,47.9147 103.5,47C 105.301,46.6827 105.634,46.016 104.5,45C 105.305,43.8873 105.972,42.7206 106.5,41.5C 106.611,40.8826 106.944,40.3826 107.5,40C 104.472,38.0893 103.806,35.5893 105.5,32.5 Z"/></g>
<g><path style="opacity:1" fill="#13060e" d="M 194.5,36.5 C 193.833,36.8333 193.167,37.1667 192.5,37.5C 186.614,41.6106 180.28,44.9439 173.5,47.5C 167.58,44.0753 161.247,41.4086 154.5,39.5C 158.851,38.0591 163.184,36.7258 167.5,35.5C 167.564,31.9376 169.397,30.2709 173,30.5C 177.676,32.3076 183.009,34.3076 189,36.5C 191.333,36.4168 193.166,35.4168 194.5,33.5C 195.087,34.2334 195.087,35.2334 194.5,36.5 Z"/></g>
<g><path style="opacity:1" fill="#5240a9" d="M 138.5,27.5 C 140.011,30.5443 140.678,33.8776 140.5,37.5C 139.804,41.4517 139.304,45.4517 139,49.5C 138.722,50.4158 138.222,51.0825 137.5,51.5C 137.421,50.0695 137.754,48.7362 138.5,47.5C 136.703,45.8689 135.536,43.8689 135,41.5C 134.25,40.8742 133.416,40.3742 132.5,40C 133.784,39.3162 134.951,39.4829 136,40.5C 136.425,35.9926 137.258,31.6592 138.5,27.5 Z"/></g>
<g><path style="opacity:1" fill="#788583" d="M 12.5,39.5 C 13.5862,39.62 14.2528,40.2867 14.5,41.5C 14.1012,43.1966 13.6012,44.8632 13,46.5C 12.3292,47.2524 11.4959,47.5858 10.5,47.5C 10.1072,44.4867 10.7739,41.8201 12.5,39.5 Z"/></g>
<g><path style="opacity:1" fill="#4a3d55" d="M 30.5,31.5 C 30.8333,31.5 31.1667,31.5 31.5,31.5C 31.5,32.5 31.5,33.5 31.5,34.5C 32.7196,36.2821 33.3862,38.2821 33.5,40.5C 37.7744,38.5619 40.6077,39.8953 42,44.5C 42.9772,43.2264 43.8106,43.2264 44.5,44.5C 43.596,45.209 43.2627,46.209 43.5,47.5C 39.8133,46.824 36.4799,45.324 33.5,43C 32.1312,41.2811 31.1312,39.4478 30.5,37.5C 30.5,35.5 30.5,33.5 30.5,31.5 Z"/></g>
<g><path style="opacity:1" fill="#679be5" d="M 89.5,43.5 C 86.1938,45.3246 82.6938,46.6579 79,47.5C 78.3333,46.8333 77.6667,46.1667 77,45.5C 77.2554,48.0816 77.422,50.7482 77.5,53.5C 76.609,54.1098 75.609,54.4431 74.5,54.5C 75.0888,50.9335 75.0888,47.2668 74.5,43.5C 76.6746,43.3178 78.6746,42.6511 80.5,41.5C 83.7024,42.7138 86.7024,43.3804 89.5,43.5 Z"/></g>
<g><path style="opacity:1" fill="#4f4ba7" d="M 72.5,22.5 C 72.5,23.5 72.5,24.5 72.5,25.5C 71.2395,28.2578 70.4061,31.2578 70,34.5C 69.18,41.0137 69.3467,47.3471 70.5,53.5C 70.5,54.1667 70.5,54.8333 70.5,55.5C 68.9891,54.4975 67.3224,53.8308 65.5,53.5C 65.8782,55.921 66.5448,58.2543 67.5,60.5C 65.8041,58.871 64.8041,59.2043 64.5,61.5C 63.5084,54.3524 63.175,47.0191 63.5,39.5C 64.1667,36.8333 64.8333,34.1667 65.5,31.5C 68.5584,29.0427 70.8917,26.0427 72.5,22.5 Z"/></g>
<g><path style="opacity:1" fill="#5d5269" d="M 1.5,40.5 C 4.86047,43.1938 7.86047,46.1938 10.5,49.5C 11.6005,50.6049 12.2671,51.9382 12.5,53.5C 12.1667,53.5 11.8333,53.5 11.5,53.5C 10.9232,52.2267 10.2565,52.2267 9.5,53.5C 7.33413,56.8264 5.0008,59.993 2.5,63C 1.2929,67.5923 0.292896,72.0923 -0.5,76.5C -0.5,65.5 -0.5,54.5 -0.5,43.5C 0.166667,42.5 0.833333,41.5 1.5,40.5 Z"/></g>
<g><path style="opacity:1" fill="#898487" d="M 16.5,43.5 C 17.1667,43.5 17.8333,43.5 18.5,43.5C 18.5987,46.2372 18.2653,48.9039 17.5,51.5C 17.1667,51.5 16.8333,51.5 16.5,51.5C 16.5,48.8333 16.5,46.1667 16.5,43.5 Z"/></g>
<g><path style="opacity:1" fill="#643a60" d="M 148.5,33.5 C 149.167,33.8333 149.833,34.1667 150.5,34.5C 151.456,35.6594 152.456,36.8261 153.5,38C 152.588,42.4464 152.255,46.9464 152.5,51.5C 151.579,48.8599 150.912,46.0265 150.5,43C 150.316,41.6244 149.649,40.7911 148.5,40.5C 148.5,38.1667 148.5,35.8333 148.5,33.5 Z"/></g>
<g><path style="opacity:1" fill="#7373b4" d="M 58.5,40.5 C 58.5,44.5 58.5,48.5 58.5,52.5C 58.7244,56.1788 59.0578,59.8455 59.5,63.5C 58.8333,62.1667 58.1667,60.8333 57.5,59.5C 57.5,58.1667 57.5,56.8333 57.5,55.5C 57.1795,50.3054 57.5128,45.3054 58.5,40.5 Z"/></g>
<g><path style="opacity:1" fill="#5969c0" d="M 125.5,31.5 C 129.409,30.7366 130.742,32.0699 129.5,35.5C 129.855,36.5223 130.522,37.189 131.5,37.5C 131.662,39.5273 131.495,41.5273 131,43.5C 128.706,45.6475 128.206,47.9809 129.5,50.5C 129.5,50.8333 129.5,51.1667 129.5,51.5C 127.114,51.2587 125.114,51.9254 123.5,53.5C 121.263,52.551 118.929,51.8844 116.5,51.5C 115.77,49.955 114.437,49.1216 112.5,49C 113.337,47.9887 113.67,46.8221 113.5,45.5C 117.961,44.2013 121.961,45.2013 125.5,48.5C 128.11,46.8127 127.777,45.4793 124.5,44.5C 125.54,42.4771 126.54,40.4771 127.5,38.5C 126.106,36.3543 125.44,34.021 125.5,31.5 Z"/></g>
<g><path style="opacity:1" fill="#6855cc" d="M 130.5,21.5 C 131.404,22.209 131.737,23.209 131.5,24.5C 132.822,24.67 133.989,24.3366 135,23.5C 135.71,24.9733 136.876,25.6399 138.5,25.5C 138.5,26.1667 138.5,26.8333 138.5,27.5C 137.258,31.6592 136.425,35.9926 136,40.5C 134.951,39.4829 133.784,39.3162 132.5,40C 133.416,40.3742 134.25,40.8742 135,41.5C 135.536,43.8689 136.703,45.8689 138.5,47.5C 137.754,48.7362 137.421,50.0695 137.5,51.5C 136.833,51.5 136.5,51.8333 136.5,52.5C 135.833,52.5 135.167,52.5 134.5,52.5C 133.833,52.5 133.5,52.1667 133.5,51.5C 134.086,46.4774 132.753,46.144 129.5,50.5C 128.206,47.9809 128.706,45.6475 131,43.5C 131.495,41.5273 131.662,39.5273 131.5,37.5C 132.756,37.5386 133.756,37.0386 134.5,36C 133.242,34.2591 132.242,32.4258 131.5,30.5C 132.5,30.5 133.5,30.5 134.5,30.5C 132.721,27.7138 131.388,24.7138 130.5,21.5 Z"/></g>
<g><path style="opacity:1" fill="#78536d" d="M 148.5,40.5 C 149.649,40.7911 150.316,41.6244 150.5,43C 150.912,46.0265 151.579,48.8599 152.5,51.5C 153.5,51.5 154.5,51.5 155.5,51.5C 154.791,52.404 153.791,52.7373 152.5,52.5C 151.167,52.5 149.833,52.5 148.5,52.5C 147.781,50.2362 147.448,47.9029 147.5,45.5C 148.322,47.3885 149.155,49.3885 150,51.5C 150.016,47.7769 149.516,44.1102 148.5,40.5 Z"/></g>
<g><path style="opacity:1" fill="#230d23" d="M 192.5,37.5 C 192.353,40.4431 191.687,43.2764 190.5,46C 190.862,47.2247 191.362,48.3914 192,49.5C 194.026,49.9147 195.526,50.9147 196.5,52.5C 192.818,53.2747 190.318,51.9414 189,48.5C 186.593,51.2 185.76,54.2 186.5,57.5C 186.023,58.931 185.357,60.2643 184.5,61.5C 182.5,60.1667 180.5,58.8333 178.5,57.5C 177.167,57.8333 175.833,58.1667 174.5,58.5C 172.991,56.3436 171.991,54.0103 171.5,51.5C 172.167,50.5 172.833,49.5 173.5,48.5C 173.5,48.1667 173.5,47.8333 173.5,47.5C 180.28,44.9439 186.614,41.6106 192.5,37.5 Z"/></g>
<g><path style="opacity:1" fill="#644c56" d="M 20.5,25.5 C 21.6981,28.0623 23.0314,30.5623 24.5,33C 23.944,33.3826 23.6107,33.8826 23.5,34.5C 22.5,34.5 21.5,34.5 20.5,34.5C 21.0138,32.4884 21.1805,30.4884 21,28.5C 17.4974,32.8319 15.9974,37.8319 16.5,43.5C 16.5,46.1667 16.5,48.8333 16.5,51.5C 15.6588,52.9264 14.6588,54.2597 13.5,55.5C 12.6618,55.1583 12.3284,54.4916 12.5,53.5C 12.2671,51.9382 11.6005,50.6049 10.5,49.5C 10.5,48.8333 10.5,48.1667 10.5,47.5C 11.4959,47.5858 12.3292,47.2524 13,46.5C 13.6012,44.8632 14.1012,43.1966 14.5,41.5C 14.2528,40.2867 13.5862,39.62 12.5,39.5C 14.0746,37.8863 14.7413,35.8863 14.5,33.5C 16.5475,31.4504 18.2141,29.117 19.5,26.5C 19.5,25.8333 19.8333,25.5 20.5,25.5 Z"/></g>
<g><path style="opacity:1" fill="#170f13" d="M 30.5,37.5 C 31.1312,39.4478 32.1312,41.2811 33.5,43C 36.4799,45.324 39.8133,46.824 43.5,47.5C 43.2627,46.209 43.596,45.209 44.5,44.5C 44.427,46.0269 45.0937,47.0269 46.5,47.5C 45.3995,48.6049 44.7329,49.9382 44.5,51.5C 42.3198,52.1171 40.3198,53.1171 38.5,54.5C 36.4983,49.2323 34.665,49.2323 33,54.5C 31.5587,55.87 29.892,56.87 28,57.5C 27.6667,59.5 27.3333,61.5 27,63.5C 26.2303,64.5981 25.397,64.5981 24.5,63.5C 24.6813,60.6029 24.3479,57.7695 23.5,55C 26.0555,50.546 27.0555,45.7126 26.5,40.5C 27.5585,39.3998 28.3918,38.0664 29,36.5C 29.3333,37.1667 29.6667,37.8333 30,38.5C 30.3988,38.2716 30.5654,37.9382 30.5,37.5 Z"/></g>
<g><path style="opacity:1" fill="#3c4f7b" d="M 143.5,42.5 C 143.46,45.8806 143.793,49.2139 144.5,52.5C 144.5,53.1667 144.167,53.5 143.5,53.5C 142.5,53.5 141.5,53.5 140.5,53.5C 140.5,50.1667 140.5,46.8333 140.5,43.5C 141.609,43.4431 142.609,43.1098 143.5,42.5 Z"/></g>
<g><path style="opacity:1" fill="#97657f" d="M 155.5,51.5 C 155.833,51.5 156.167,51.5 156.5,51.5C 158.857,51.3367 161.19,51.5034 163.5,52C 162.565,54.3806 162.232,56.8806 162.5,59.5C 161.5,59.5 160.5,59.5 159.5,59.5C 159.5,60.5 159.5,61.5 159.5,62.5C 157.833,62.5 156.167,62.5 154.5,62.5C 155.113,59.0306 153.779,57.0306 150.5,56.5C 150.196,55.8501 149.863,55.1835 149.5,54.5C 150.602,53.8243 151.602,53.1577 152.5,52.5C 153.791,52.7373 154.791,52.404 155.5,51.5 Z"/></g>
<g><path style="opacity:1" fill="#7f4b49" d="M 22.5,48.5 C 21.9178,52.532 20.5845,56.1987 18.5,59.5C 18.1667,59.5 17.8333,59.5 17.5,59.5C 16.9084,56.8728 16.5751,54.2062 16.5,51.5C 16.8333,51.5 17.1667,51.5 17.5,51.5C 17.3505,52.552 17.5172,53.552 18,54.5C 18.7918,51.8936 20.2918,49.8936 22.5,48.5 Z"/></g>
<g><path style="opacity:1" fill="#362328" d="M 26.5,40.5 C 27.0555,45.7126 26.0555,50.546 23.5,55C 24.3479,57.7695 24.6813,60.6029 24.5,63.5C 24.5,64.5 24.5,65.5 24.5,66.5C 23.834,63.6417 23.1674,60.6417 22.5,57.5C 21.5905,59.3747 20.2572,60.708 18.5,61.5C 18.5,60.8333 18.5,60.1667 18.5,59.5C 20.5845,56.1987 21.9178,52.532 22.5,48.5C 23.2784,45.4605 24.6117,42.7938 26.5,40.5 Z"/></g>
<g><path style="opacity:1" fill="#322f79" d="M 140.5,37.5 C 141.573,39.3469 141.573,41.3469 140.5,43.5C 140.5,46.8333 140.5,50.1667 140.5,53.5C 140.158,54.3382 139.492,54.6716 138.5,54.5C 137.167,54.5 136.5,53.8333 136.5,52.5C 136.5,51.8333 136.833,51.5 137.5,51.5C 138.222,51.0825 138.722,50.4158 139,49.5C 139.304,45.4517 139.804,41.4517 140.5,37.5 Z"/></g>
<g><path style="opacity:1" fill="#675878" d="M 11.5,53.5 C 11.8333,53.5 12.1667,53.5 12.5,53.5C 12.3284,54.4916 12.6618,55.1583 13.5,55.5C 14.5375,56.9303 15.2041,58.597 15.5,60.5C 14.2101,59.9423 13.3768,58.9423 13,57.5C 12.0889,62.1618 10.4223,66.4951 8,70.5C 7,69.1667 6,69.1667 5,70.5C 4.33333,75.1667 4.33333,79.8333 5,84.5C 8.13215,89.7738 10.4655,95.4405 12,101.5C 16.4545,104.334 16.6212,107.334 12.5,110.5C 12.628,108.345 12.128,106.345 11,104.5C 8.8515,103.023 7.51817,101.023 7,98.5C 5.76838,101.23 4.93504,101.063 4.5,98C 4.43928,96.2894 5.10595,94.956 6.5,94C 6,93.5 5.5,93 5,92.5C 2.91834,84.1109 2.41834,75.9442 3.5,68C 6.56766,63.3627 9.23433,58.5294 11.5,53.5 Z"/></g>
<g><path style="opacity:1" fill="#b5aef5" d="M 62.5,20.5 C 62.8333,20.5 63.1667,20.5 63.5,20.5C 62.8099,24.4896 62.6432,28.4896 63,32.5C 63.9853,30.8251 64.8186,29.1585 65.5,27.5C 65.5,28.8333 65.5,30.1667 65.5,31.5C 64.8333,34.1667 64.1667,36.8333 63.5,39.5C 62.671,46.989 62.171,54.6557 62,62.5C 60.5137,59.1498 59.347,55.8165 58.5,52.5C 58.5,48.5 58.5,44.5 58.5,40.5C 58.6159,37.1401 58.9492,33.8067 59.5,30.5C 60.8991,27.3012 61.8991,23.9679 62.5,20.5 Z"/></g>
<g><path style="opacity:1" fill="#7867c9" d="M 70.5,55.5 C 70.5,55.8333 70.5,56.1667 70.5,56.5C 70.9926,58.8056 71.3259,61.139 71.5,63.5C 69.0274,63.9118 67.6941,62.9118 67.5,60.5C 66.5448,58.2543 65.8782,55.921 65.5,53.5C 67.3224,53.8308 68.9891,54.4975 70.5,55.5 Z"/></g>
<g><path style="opacity:1" fill="#7cb1f2" d="M 89.5,43.5 C 90.5819,47.1229 92.5819,50.1229 95.5,52.5C 95.162,55.0115 95.162,57.3448 95.5,59.5C 94.3112,60.4287 92.9778,60.762 91.5,60.5C 91.1667,62.5 90.8333,64.5 90.5,66.5C 88.5786,65.6373 86.5786,64.9707 84.5,64.5C 83.4526,60.192 81.2859,59.192 78,61.5C 76.4009,60.9293 75.2342,59.9293 74.5,58.5C 74.5,57.1667 74.5,55.8333 74.5,54.5C 75.609,54.4431 76.609,54.1098 77.5,53.5C 77.422,50.7482 77.2554,48.0816 77,45.5C 77.6667,46.1667 78.3333,46.8333 79,47.5C 82.6938,46.6579 86.1938,45.3246 89.5,43.5 Z"/></g>
<g><path style="opacity:1" fill="#7fbcf3" d="M 77.5,53.5 C 80.6779,50.7798 84.3445,49.9464 88.5,51C 89.5427,53.5405 90.2094,55.8738 90.5,58C 88.5436,57.7782 86.7103,56.9448 85,55.5C 82.9361,56.5914 80.7695,56.7581 78.5,56C 77.7476,55.3292 77.4142,54.4959 77.5,53.5 Z"/></g>
<g><path style="opacity:1" fill="#aba1f2" d="M 129.5,51.5 C 130.097,51.7352 130.43,52.2352 130.5,53C 129.449,55.3607 128.449,57.6941 127.5,60C 127.585,61.1074 127.919,62.1074 128.5,63C 126.277,63.5662 124.277,64.3995 122.5,65.5C 121.833,65.5 121.167,65.5 120.5,65.5C 121.287,63.8958 122.62,63.2291 124.5,63.5C 124.5,62.5 124.5,61.5 124.5,60.5C 124.5,59.8333 124.5,59.1667 124.5,58.5C 126.233,57.9924 126.566,57.159 125.5,56C 123.866,55.5065 122.199,55.3398 120.5,55.5C 121.5,54.8333 122.5,54.1667 123.5,53.5C 125.114,51.9254 127.114,51.2587 129.5,51.5 Z"/></g>
<g><path style="opacity:1" fill="#504a98" d="M 134.5,52.5 C 135.167,52.5 135.833,52.5 136.5,52.5C 136.5,53.8333 137.167,54.5 138.5,54.5C 138.488,57.142 139.821,58.4754 142.5,58.5C 142.5,59.1667 142.5,59.8333 142.5,60.5C 141.833,60.1667 141.167,59.8333 140.5,59.5C 139.735,59.0766 138.902,58.7432 138,58.5C 136.826,59.5442 135.659,60.5442 134.5,61.5C 134.5,58.5 134.5,55.5 134.5,52.5 Z"/></g>
<g><path style="opacity:1" fill="#5f3e4f" d="M 173.5,48.5 C 172.833,49.5 172.167,50.5 171.5,51.5C 170.539,53.2646 170.205,55.2646 170.5,57.5C 169.5,57.5 168.5,57.5 167.5,57.5C 167.703,59.3904 167.037,60.8904 165.5,62C 162.898,63.1396 160.231,63.9729 157.5,64.5C 155.102,64.7406 153.102,64.0739 151.5,62.5C 152.5,62.5 153.5,62.5 154.5,62.5C 156.167,62.5 157.833,62.5 159.5,62.5C 159.5,61.5 159.5,60.5 159.5,59.5C 160.5,59.5 161.5,59.5 162.5,59.5C 162.232,56.8806 162.565,54.3806 163.5,52C 161.19,51.5034 158.857,51.3367 156.5,51.5C 161.933,49.8828 167.6,48.8828 173.5,48.5 Z"/></g>
<g><path style="opacity:1" fill="#6c5c7f" d="M 15.5,60.5 C 14.242,64.1337 14.242,67.8004 15.5,71.5C 14.8826,71.3893 14.3826,71.056 14,70.5C 12.2895,72.9562 10.9562,75.6229 10,78.5C 9.10723,77.2888 8.2739,77.2888 7.5,78.5C 9.97362,85.506 12.6403,92.006 15.5,98C 15.2645,98.8732 14.9312,99.7065 14.5,100.5C 16.3603,101.939 18.027,103.605 19.5,105.5C 18.3523,107.149 17.019,108.649 15.5,110C 18.2784,111.392 21.2784,111.892 24.5,111.5C 24.5,112.5 24.5,113.5 24.5,114.5C 21.5,114.5 18.5,114.5 15.5,114.5C 14.4324,113.566 13.099,113.232 11.5,113.5C 11.2627,112.209 11.596,111.209 12.5,110.5C 16.6212,107.334 16.4545,104.334 12,101.5C 10.4655,95.4405 8.13215,89.7738 5,84.5C 4.33333,79.8333 4.33333,75.1667 5,70.5C 6,69.1667 7,69.1667 8,70.5C 10.4223,66.4951 12.0889,62.1618 13,57.5C 13.3768,58.9423 14.2101,59.9423 15.5,60.5 Z"/></g>
<g><path style="opacity:1" fill="#251a1d" d="M 16.5,51.5 C 16.5751,54.2062 16.9084,56.8728 17.5,59.5C 17.1583,60.3382 16.4916,60.6716 15.5,60.5C 15.2041,58.597 14.5375,56.9303 13.5,55.5C 14.6588,54.2597 15.6588,52.9264 16.5,51.5 Z"/></g>
<g><path style="opacity:1" fill="#b4777c" d="M 144.5,52.5 C 145.833,52.5 147.167,52.5 148.5,52.5C 149.833,52.5 151.167,52.5 152.5,52.5C 151.602,53.1577 150.602,53.8243 149.5,54.5C 149.863,55.1835 150.196,55.8501 150.5,56.5C 148.689,57.822 146.689,58.322 144.5,58C 143.62,56.6439 143.286,55.1439 143.5,53.5C 144.167,53.5 144.5,53.1667 144.5,52.5 Z"/></g>
<g><path style="opacity:1" fill="#6d81e4" d="M 116.5,51.5 C 118.929,51.8844 121.263,52.551 123.5,53.5C 122.5,54.1667 121.5,54.8333 120.5,55.5C 115.538,55.7945 111.872,58.1279 109.5,62.5C 108.833,62.5 108.167,62.5 107.5,62.5C 107.269,58.1873 108.602,54.5206 111.5,51.5C 112.298,53.0777 112.798,54.7444 113,56.5C 114.626,55.0445 115.792,53.3779 116.5,51.5 Z"/></g>
<g><path style="opacity:1" fill="#e1d7fd" d="M 120.5,57.5 C 122.128,56.1472 123.462,56.4805 124.5,58.5C 124.5,59.1667 124.5,59.8333 124.5,60.5C 123.18,61.9418 121.514,62.6085 119.5,62.5C 121.432,61.0236 121.765,59.3569 120.5,57.5 Z"/></g>
<g><path style="opacity:1" fill="#5a68b4" d="M 133.5,51.5 C 133.5,52.1667 133.833,52.5 134.5,52.5C 134.5,55.5 134.5,58.5 134.5,61.5C 133.391,61.5569 132.391,61.8902 131.5,62.5C 129.913,58.3492 130.58,54.6826 133.5,51.5 Z"/></g>
<g><path style="opacity:1" fill="#b47f95" d="M 140.5,53.5 C 141.5,53.5 142.5,53.5 143.5,53.5C 143.286,55.1439 143.62,56.6439 144.5,58C 146.689,58.322 148.689,57.822 150.5,56.5C 153.779,57.0306 155.113,59.0306 154.5,62.5C 153.5,62.5 152.5,62.5 151.5,62.5C 148.594,62.0435 145.928,61.0435 143.5,59.5C 143.5,58.8333 143.167,58.5 142.5,58.5C 139.821,58.4754 138.488,57.142 138.5,54.5C 139.492,54.6716 140.158,54.3382 140.5,53.5 Z"/></g>
<g><path style="opacity:1" fill="#30192a" d="M 196.5,52.5 C 196.5,54.8333 196.5,57.1667 196.5,59.5C 197.552,59.3505 198.552,59.5172 199.5,60C 196.319,62.0299 193.319,64.1965 190.5,66.5C 187.292,65.1502 183.959,63.9836 180.5,63C 179.874,62.2496 179.374,61.4162 179,60.5C 178.82,62.4884 178.986,64.4884 179.5,66.5C 172.138,66.6354 164.804,66.3021 157.5,65.5C 157.5,65.1667 157.5,64.8333 157.5,64.5C 160.231,63.9729 162.898,63.1396 165.5,62C 167.037,60.8904 167.703,59.3904 167.5,57.5C 168.5,57.5 169.5,57.5 170.5,57.5C 170.205,55.2646 170.539,53.2646 171.5,51.5C 171.991,54.0103 172.991,56.3436 174.5,58.5C 175.833,58.1667 177.167,57.8333 178.5,57.5C 180.5,58.8333 182.5,60.1667 184.5,61.5C 185.357,60.2643 186.023,58.931 186.5,57.5C 185.76,54.2 186.593,51.2 189,48.5C 190.318,51.9414 192.818,53.2747 196.5,52.5 Z"/></g>
<g><path style="opacity:1" fill="#2e1e3d" d="M 55.5,65.5 C 54.1851,64.5244 52.8518,63.5244 51.5,62.5C 46.7299,66.306 46.7299,70.306 51.5,74.5C 51.5,76.5 51.5,78.5 51.5,80.5C 51.1667,80.5 50.8333,80.5 50.5,80.5C 50.5,79.1667 50.5,77.8333 50.5,76.5C 47.8478,76.4095 45.5145,77.0762 43.5,78.5C 42.5178,79.1408 41.5178,79.8075 40.5,80.5C 39.5411,84.7297 38.2078,88.7297 36.5,92.5C 35.5116,91.205 34.5116,89.8717 33.5,88.5C 36.4417,87.5366 38.1084,85.5366 38.5,82.5C 37.3778,79.0661 36.3778,75.7328 35.5,72.5C 34.7814,70.2362 34.448,67.9029 34.5,65.5C 33.325,65.719 32.325,65.3857 31.5,64.5C 33.681,61.3268 36.681,59.3268 40.5,58.5C 41.2652,59.6119 42.2652,60.2786 43.5,60.5C 43.7214,59.2652 44.3881,58.2652 45.5,57.5C 43.2653,55.8437 42.932,53.8437 44.5,51.5C 44.7329,49.9382 45.3995,48.6049 46.5,47.5C 47.4171,45.3382 47.4171,43.0048 46.5,40.5C 47.2216,40.9175 47.7216,41.5842 48,42.5C 48.6368,40.6969 49.8035,39.3636 51.5,38.5C 52.1924,39.0253 52.6924,39.6919 53,40.5C 51.6923,49.0554 52.5257,57.3887 55.5,65.5 Z"/></g>
<g><path style="opacity:1" fill="#372353" d="M 43.5,60.5 C 44.5,60.5 45.5,60.5 46.5,60.5C 46.6025,57.7814 46.2692,55.1147 45.5,52.5C 46.8632,50.2925 48.0299,47.9592 49,45.5C 49.3333,45.1667 49.6667,44.8333 50,44.5C 51.4051,51.7662 50.0718,58.4329 46,64.5C 44.9887,65.3366 43.8221,65.67 42.5,65.5C 42.366,63.7085 42.6993,62.0418 43.5,60.5 Z"/></g>
<g><path style="opacity:1" fill="#b1bcf8" d="M 74.5,58.5 C 75.2342,59.9293 76.4009,60.9293 78,61.5C 81.2859,59.192 83.4526,60.192 84.5,64.5C 81.9039,63.7347 79.2372,63.4013 76.5,63.5C 75.0639,62.5714 73.7305,61.4048 72.5,60C 73.4158,59.7216 74.0825,59.2216 74.5,58.5 Z"/></g>
<g><path style="opacity:1" fill="#f2f4fe" d="M 120.5,57.5 C 121.765,59.3569 121.432,61.0236 119.5,62.5C 118.027,63.072 116.693,63.9054 115.5,65C 113.741,65.7975 112.074,65.6309 110.5,64.5C 112.763,60.5606 116.096,58.2273 120.5,57.5 Z"/></g>
<g><path style="opacity:1" fill="#1f1423" d="M 44.5,51.5 C 42.932,53.8437 43.2653,55.8437 45.5,57.5C 44.3881,58.2652 43.7214,59.2652 43.5,60.5C 42.2652,60.2786 41.2652,59.6119 40.5,58.5C 36.681,59.3268 33.681,61.3268 31.5,64.5C 32.325,65.3857 33.325,65.719 34.5,65.5C 34.448,67.9029 34.7814,70.2362 35.5,72.5C 34.2502,72.5774 33.4169,73.244 33,74.5C 30.6318,72.4057 28.7985,69.9057 27.5,67C 26.552,66.5172 25.552,66.3505 24.5,66.5C 24.5,65.5 24.5,64.5 24.5,63.5C 25.397,64.5981 26.2303,64.5981 27,63.5C 27.3333,61.5 27.6667,59.5 28,57.5C 29.892,56.87 31.5587,55.87 33,54.5C 34.665,49.2323 36.4983,49.2323 38.5,54.5C 40.3198,53.1171 42.3198,52.1171 44.5,51.5 Z"/></g>
<g><path style="opacity:1" fill="#8187dd" d="M 133.5,51.5 C 130.58,54.6826 129.913,58.3492 131.5,62.5C 129.028,63.6421 128.028,65.6421 128.5,68.5C 127.609,67.8902 126.609,67.5569 125.5,67.5C 125.611,66.8826 125.944,66.3826 126.5,66C 125.207,65.51 123.873,65.3433 122.5,65.5C 124.277,64.3995 126.277,63.5662 128.5,63C 127.919,62.1074 127.585,61.1074 127.5,60C 128.449,57.6941 129.449,55.3607 130.5,53C 130.43,52.2352 130.097,51.7352 129.5,51.5C 129.5,51.1667 129.5,50.8333 129.5,50.5C 132.753,46.144 134.086,46.4774 133.5,51.5 Z"/></g>
<g><path style="opacity:1" fill="#8b8ce0" d="M 63.5,39.5 C 63.175,47.0191 63.5084,54.3524 64.5,61.5C 66.1056,64.9861 67.1056,68.6528 67.5,72.5C 65.3956,69.8211 63.7289,66.8211 62.5,63.5C 62.1667,64.1667 61.8333,64.8333 61.5,65.5C 62.3284,68.4788 62.9951,71.4788 63.5,74.5C 61.7225,71.0977 60.3891,67.4311 59.5,63.5C 59.0578,59.8455 58.7244,56.1788 58.5,52.5C 59.347,55.8165 60.5137,59.1498 62,62.5C 62.171,54.6557 62.671,46.989 63.5,39.5 Z"/></g>
<g><path style="opacity:1" fill="#5379b9" d="M 98.5,56.5 C 100.5,56.5 102.5,56.5 104.5,56.5C 103.052,58.8286 102.052,61.1619 101.5,63.5C 100.022,66.3657 98.6889,69.3657 97.5,72.5C 96.3984,73.1757 95.3984,73.8423 94.5,74.5C 93.9569,74.44 93.6236,74.1067 93.5,73.5C 94.9524,72.0603 95.9524,70.3936 96.5,68.5C 96.6893,64.3596 97.3559,60.3596 98.5,56.5 Z"/></g>
<g><path style="opacity:1" fill="#c2b9fb" d="M 120.5,55.5 C 122.199,55.3398 123.866,55.5065 125.5,56C 126.566,57.159 126.233,57.9924 124.5,58.5C 123.462,56.4805 122.128,56.1472 120.5,57.5C 116.096,58.2273 112.763,60.5606 110.5,64.5C 112.074,65.6309 113.741,65.7975 115.5,65C 116.693,63.9054 118.027,63.072 119.5,62.5C 121.514,62.6085 123.18,61.9418 124.5,60.5C 124.5,61.5 124.5,62.5 124.5,63.5C 122.62,63.2291 121.287,63.8958 120.5,65.5C 119.18,66.9418 117.514,67.6085 115.5,67.5C 111.062,68.5749 109.062,66.9083 109.5,62.5C 111.872,58.1279 115.538,55.7945 120.5,55.5 Z"/></g>
<g><path style="opacity:1" fill="#512bba" d="M 140.5,59.5 C 141.15,61.4352 141.483,63.4352 141.5,65.5C 139.297,65.6036 137.297,66.2702 135.5,67.5C 135.167,66.1667 134.833,64.8333 134.5,63.5C 134.5,62.8333 134.5,62.1667 134.5,61.5C 135.659,60.5442 136.826,59.5442 138,58.5C 138.902,58.7432 139.735,59.0766 140.5,59.5 Z"/></g>
<g><path style="opacity:1" fill="#674f62" d="M 203.5,63.5 C 203.5,65.5 203.5,67.5 203.5,69.5C 201.883,68.962 200.216,68.6287 198.5,68.5C 197.415,63.58 199.082,61.9134 203.5,63.5 Z"/></g>
<g><path style="opacity:1" fill="#f1d9fe" d="M 76.5,63.5 C 79.2372,63.4013 81.9039,63.7347 84.5,64.5C 84.5,64.8333 84.5,65.1667 84.5,65.5C 82.712,65.2148 81.0453,65.5481 79.5,66.5C 79.8627,67.1835 80.1961,67.8501 80.5,68.5C 78.9382,68.2671 77.6049,67.6005 76.5,66.5C 76.5,65.5 76.5,64.5 76.5,63.5 Z"/></g>
<g><path style="opacity:1" fill="#6d97db" d="M 95.5,52.5 C 96.1667,53.1667 96.8333,53.8333 97.5,54.5C 97.8333,55.1667 98.1667,55.8333 98.5,56.5C 97.3559,60.3596 96.6893,64.3596 96.5,68.5C 95.8333,68.8333 95.1667,69.1667 94.5,69.5C 93.596,68.791 93.2627,67.791 93.5,66.5C 92.5,66.5 91.5,66.5 90.5,66.5C 90.8333,64.5 91.1667,62.5 91.5,60.5C 92.9778,60.762 94.3112,60.4287 95.5,59.5C 95.162,57.3448 95.162,55.0115 95.5,52.5 Z"/></g>
<g><path style="opacity:1" fill="#5b40b3" d="M 140.5,59.5 C 141.167,59.8333 141.833,60.1667 142.5,60.5C 142.763,64.6002 142.43,68.6002 141.5,72.5C 141.167,72.5 140.833,72.5 140.5,72.5C 141.219,70.2362 141.552,67.9029 141.5,65.5C 141.483,63.4352 141.15,61.4352 140.5,59.5 Z"/></g>
<g><path style="opacity:1" fill="#859c9f" d="M 17.5,59.5 C 17.8333,59.5 18.1667,59.5 18.5,59.5C 18.5,60.1667 18.5,60.8333 18.5,61.5C 18.2256,66.263 18.559,70.9296 19.5,75.5C 19.5,76.1667 19.1667,76.5 18.5,76.5C 18.1667,76.5 17.8333,76.5 17.5,76.5C 17.2041,74.597 16.5375,72.9303 15.5,71.5C 14.242,67.8004 14.242,64.1337 15.5,60.5C 16.4916,60.6716 17.1583,60.3382 17.5,59.5 Z"/></g>
<g><path style="opacity:1" fill="#3e1d20" d="M 143.5,59.5 C 145.928,61.0435 148.594,62.0435 151.5,62.5C 153.102,64.0739 155.102,64.7406 157.5,64.5C 157.5,64.8333 157.5,65.1667 157.5,65.5C 156.849,66.0906 156.182,66.7573 155.5,67.5C 153.167,66.8333 150.833,66.1667 148.5,65.5C 147.828,66.9492 147.161,68.2825 146.5,69.5C 147.092,66.3695 146.092,64.0361 143.5,62.5C 143.5,61.5 143.5,60.5 143.5,59.5 Z"/></g>
<g><path style="opacity:1" fill="#463da2" d="M 67.5,60.5 C 67.6941,62.9118 69.0274,63.9118 71.5,63.5C 72.5969,66.6865 73.9303,69.6865 75.5,72.5C 75.5,73.1667 75.5,73.8333 75.5,74.5C 75.631,75.2389 75.4643,75.9056 75,76.5C 73.9805,75.3128 72.8139,74.3128 71.5,73.5C 71.1667,74 70.8333,74.5 70.5,75C 71.4088,77.8946 72.4088,80.7279 73.5,83.5C 72.5416,83.0472 71.7083,82.3805 71,81.5C 70.0997,78.2823 68.933,75.2823 67.5,72.5C 67.1056,68.6528 66.1056,64.9861 64.5,61.5C 64.8041,59.2043 65.8041,58.871 67.5,60.5 Z"/></g>
<g><path style="opacity:1" fill="#fcf4fe" d="M 84.5,65.5 C 85.8149,66.4756 87.1482,67.4756 88.5,68.5C 85.8013,69.7294 83.1346,69.7294 80.5,68.5C 80.1961,67.8501 79.8627,67.1835 79.5,66.5C 81.0453,65.5481 82.712,65.2148 84.5,65.5 Z"/></g>
<g><path style="opacity:1" fill="#625570" d="M 11.5,53.5 C 9.23433,58.5294 6.56766,63.3627 3.5,68C 2.41834,75.9442 2.91834,84.1109 5,92.5C 5.5,93 6,93.5 6.5,94C 5.10595,94.956 4.43928,96.2894 4.5,98C 4.93504,101.063 5.76838,101.23 7,98.5C 7.51817,101.023 8.8515,103.023 11,104.5C 12.128,106.345 12.628,108.345 12.5,110.5C 11.596,111.209 11.2627,112.209 11.5,113.5C 13.099,113.232 14.4324,113.566 15.5,114.5C 10.1667,114.5 4.83333,114.5 -0.5,114.5C -0.5,101.833 -0.5,89.1667 -0.5,76.5C 0.292896,72.0923 1.2929,67.5923 2.5,63C 5.0008,59.993 7.33413,56.8264 9.5,53.5C 10.2565,52.2267 10.9232,52.2267 11.5,53.5 Z"/></g>
<g><path style="opacity:1" fill="#8e8ee5" d="M 107.5,62.5 C 108.167,62.5 108.833,62.5 109.5,62.5C 109.062,66.9083 111.062,68.5749 115.5,67.5C 113.383,69.3162 111.049,69.6496 108.5,68.5C 107.5,68.5 106.5,68.5 105.5,68.5C 105.704,66.3146 106.37,64.3146 107.5,62.5 Z"/></g>
<g><path style="opacity:1" fill="#bdb7fb" d="M 84.5,65.5 C 84.5,65.1667 84.5,64.8333 84.5,64.5C 86.5786,64.9707 88.5786,65.6373 90.5,66.5C 91.3029,67.4232 91.4696,68.4232 91,69.5C 88.8807,70.6508 87.0473,72.1508 85.5,74C 83.735,74.6397 82.0683,74.4731 80.5,73.5C 80.5,73.1667 80.5,72.8333 80.5,72.5C 79.1667,70.5 77.8333,68.5 76.5,66.5C 77.6049,67.6005 78.9382,68.2671 80.5,68.5C 83.1346,69.7294 85.8013,69.7294 88.5,68.5C 87.1482,67.4756 85.8149,66.4756 84.5,65.5 Z"/></g>
<g><path style="opacity:1" fill="#9e8df3" d="M 70.5,56.5 C 71.8333,57.1667 73.1667,57.8333 74.5,58.5C 74.0825,59.2216 73.4158,59.7216 72.5,60C 73.7305,61.4048 75.0639,62.5714 76.5,63.5C 76.5,64.5 76.5,65.5 76.5,66.5C 77.8333,68.5 79.1667,70.5 80.5,72.5C 78.8333,72.5 77.1667,72.5 75.5,72.5C 73.9303,69.6865 72.5969,66.6865 71.5,63.5C 71.3259,61.139 70.9926,58.8056 70.5,56.5 Z"/></g>
<g><path style="opacity:1" fill="#6180e4" d="M 120.5,65.5 C 121.167,65.5 121.833,65.5 122.5,65.5C 123.873,65.3433 125.207,65.51 126.5,66C 125.944,66.3826 125.611,66.8826 125.5,67.5C 122.474,68.4636 119.808,69.7969 117.5,71.5C 116.533,72.8062 115.199,73.4729 113.5,73.5C 112.152,72.3994 110.652,71.3994 109,70.5C 108.536,69.9056 108.369,69.2389 108.5,68.5C 111.049,69.6496 113.383,69.3162 115.5,67.5C 117.514,67.6085 119.18,66.9418 120.5,65.5 Z"/></g>
<g><path style="opacity:1" fill="#5c34da" d="M 141.5,65.5 C 141.552,67.9029 141.219,70.2362 140.5,72.5C 139.292,73.2341 137.959,73.5674 136.5,73.5C 136.374,71.8002 135.707,70.3002 134.5,69C 134.57,68.2352 134.903,67.7352 135.5,67.5C 137.297,66.2702 139.297,65.6036 141.5,65.5 Z"/></g>
<g><path style="opacity:1" fill="#4e3548" d="M 143.5,62.5 C 146.092,64.0361 147.092,66.3695 146.5,69.5C 145.701,72.4299 145.368,75.4299 145.5,78.5C 144.833,79.5 144.167,80.5 143.5,81.5C 144.313,75.1998 144.313,68.8665 143.5,62.5 Z"/></g>
<g><path style="opacity:1" fill="#9ca4f0" d="M 67.5,72.5 C 67.7495,75.0021 68.0828,77.5021 68.5,80C 67.5824,82.7607 66.9157,85.5941 66.5,88.5C 66.1667,89.5 65.5,90.1667 64.5,90.5C 64.6716,89.5084 64.3382,88.8417 63.5,88.5C 65.6528,85.2885 65.9862,81.9552 64.5,78.5C 64.1667,77.1667 63.8333,75.8333 63.5,74.5C 62.9951,71.4788 62.3284,68.4788 61.5,65.5C 61.8333,64.8333 62.1667,64.1667 62.5,63.5C 63.7289,66.8211 65.3956,69.8211 67.5,72.5 Z"/></g>
<g><path style="opacity:1" fill="#504ada" d="M 134.5,63.5 C 134.833,64.8333 135.167,66.1667 135.5,67.5C 134.903,67.7352 134.57,68.2352 134.5,69C 135.707,70.3002 136.374,71.8002 136.5,73.5C 137.959,73.5674 139.292,73.2341 140.5,72.5C 140.5,73.5 140.5,74.5 140.5,75.5C 139.512,76.795 138.512,78.1283 137.5,79.5C 136.883,79.6107 136.383,79.944 136,80.5C 134.632,75.2622 132.465,70.4289 129.5,66C 130.91,64.6283 132.577,63.795 134.5,63.5 Z"/></g>
<g><path style="opacity:1" fill="#220e1a" d="M 190.5,66.5 C 194.697,68.2321 199.031,69.5655 203.5,70.5C 203.5,74.5 203.5,78.5 203.5,82.5C 201.5,82.5 199.5,82.5 197.5,82.5C 196.178,82.33 195.011,82.6634 194,83.5C 192.383,82.4642 192.216,81.2975 193.5,80C 190.459,78.0205 188.792,75.1872 188.5,71.5C 187.702,71.9569 187.369,72.6236 187.5,73.5C 187.5,73.8333 187.5,74.1667 187.5,74.5C 185.549,75.7158 184.049,77.3825 183,79.5C 182.517,78.552 182.351,77.552 182.5,76.5C 183.29,75.2058 184.29,74.0391 185.5,73C 185,72.8333 184.5,72.6667 184,72.5C 182.233,73.34 180.899,74.6734 180,76.5C 179.605,79.2066 179.105,81.8733 178.5,84.5C 178.443,85.609 178.11,86.609 177.5,87.5C 176.391,87.5569 175.391,87.8902 174.5,88.5C 173.15,87.5169 172.15,86.1836 171.5,84.5C 170.056,85.981 169.389,85.6477 169.5,83.5C 171.354,79.9469 173.021,76.2803 174.5,72.5C 176.044,72.2969 177.378,71.6302 178.5,70.5C 179.167,70.8333 179.833,71.1667 180.5,71.5C 181.817,69.8409 183.483,68.6743 185.5,68C 183.292,67.8091 181.292,67.3091 179.5,66.5C 178.986,64.4884 178.82,62.4884 179,60.5C 179.374,61.4162 179.874,62.2496 180.5,63C 183.959,63.9836 187.292,65.1502 190.5,66.5 Z"/></g>
<g><path style="opacity:1" fill="#432e64" d="M 55.5,65.5 C 57.7495,70.0793 58.7495,75.0793 58.5,80.5C 58.1667,80.5 57.8333,80.5 57.5,80.5C 57.1167,76.6807 56.1167,73.014 54.5,69.5C 53.8333,68.1667 53.1667,68.1667 52.5,69.5C 51.6906,71.0709 51.3573,72.7376 51.5,74.5C 46.7299,70.306 46.7299,66.306 51.5,62.5C 52.8518,63.5244 54.1851,64.5244 55.5,65.5 Z"/></g>
<g><path style="opacity:1" fill="#433554" d="M 57.5,59.5 C 58.1667,60.8333 58.8333,62.1667 59.5,63.5C 60.3891,67.4311 61.7225,71.0977 63.5,74.5C 63.8333,75.8333 64.1667,77.1667 64.5,78.5C 64.5905,81.1522 63.9238,83.4855 62.5,85.5C 61.2497,83.8459 59.9163,82.1793 58.5,80.5C 58.7495,75.0793 57.7495,70.0793 55.5,65.5C 56.1174,65.6107 56.6174,65.944 57,66.5C 57.4966,64.1902 57.6633,61.8568 57.5,59.5 Z"/></g>
<g><path style="opacity:1" fill="#6b90e0" d="M 90.5,66.5 C 91.5,66.5 92.5,66.5 93.5,66.5C 93.2627,67.791 93.596,68.791 94.5,69.5C 92.666,71.5054 90.9993,73.6721 89.5,76C 87.2922,76.1909 85.2922,76.6909 83.5,77.5C 82.5084,77.6716 81.8417,77.3382 81.5,76.5C 80.8902,75.609 80.5569,74.609 80.5,73.5C 82.0683,74.4731 83.735,74.6397 85.5,74C 87.0473,72.1508 88.8807,70.6508 91,69.5C 91.4696,68.4232 91.3029,67.4232 90.5,66.5 Z"/></g>
<g><path style="opacity:1" fill="#4b62de" d="M 134.5,61.5 C 134.5,62.1667 134.5,62.8333 134.5,63.5C 132.577,63.795 130.91,64.6283 129.5,66C 132.465,70.4289 134.632,75.2622 136,80.5C 136.383,79.944 136.883,79.6107 137.5,79.5C 136.817,81.1765 135.483,81.8432 133.5,81.5C 133.5,79.8333 133.5,78.1667 133.5,76.5C 132.178,76.33 131.011,76.6634 130,77.5C 129.819,74.3054 129.319,71.3054 128.5,68.5C 128.028,65.6421 129.028,63.6421 131.5,62.5C 132.391,61.8902 133.391,61.5569 134.5,61.5 Z"/></g>
<g><path style="opacity:1" fill="#241b2c" d="M 50.5,80.5 C 49.5829,82.6618 49.5829,84.9952 50.5,87.5C 48.8583,89.0808 46.8583,89.7475 44.5,89.5C 44.3089,92.9888 43.9756,93.1555 43.5,90C 44.6579,87.103 44.6579,84.2697 43.5,81.5C 43.5,80.5 43.5,79.5 43.5,78.5C 45.5145,77.0762 47.8478,76.4095 50.5,76.5C 50.5,77.8333 50.5,79.1667 50.5,80.5 Z"/></g>
<g><path style="opacity:1" fill="#5166c7" d="M 75.5,72.5 C 77.1667,72.5 78.8333,72.5 80.5,72.5C 80.5,72.8333 80.5,73.1667 80.5,73.5C 80.5569,74.609 80.8902,75.609 81.5,76.5C 80.1667,77.1667 78.8333,77.8333 77.5,78.5C 77.0113,77.0048 76.3446,75.6715 75.5,74.5C 75.5,73.8333 75.5,73.1667 75.5,72.5 Z"/></g>
<g><path style="opacity:1" fill="#312f37" d="M 171.5,71.5 C 172.609,71.5569 173.609,71.8902 174.5,72.5C 173.021,76.2803 171.354,79.9469 169.5,83.5C 169.167,83.5 168.833,83.5 168.5,83.5C 169.41,79.5432 170.41,75.5432 171.5,71.5 Z"/></g>
<g><path style="opacity:1" fill="#2a2b77" d="M 75.5,74.5 C 76.3446,75.6715 77.0113,77.0048 77.5,78.5C 77.5,79.1667 77.5,79.8333 77.5,80.5C 76.5,80.5 75.5,80.5 74.5,80.5C 74.5838,83.3274 75.2504,85.994 76.5,88.5C 74.7497,87.3406 73.7497,85.674 73.5,83.5C 72.4088,80.7279 71.4088,77.8946 70.5,75C 70.8333,74.5 71.1667,74 71.5,73.5C 72.8139,74.3128 73.9805,75.3128 75,76.5C 75.4643,75.9056 75.631,75.2389 75.5,74.5 Z"/></g>
<g><path style="opacity:1" fill="#1b1419" d="M 24.5,66.5 C 25.552,66.3505 26.552,66.5172 27.5,67C 28.7985,69.9057 30.6318,72.4057 33,74.5C 33.4169,73.244 34.2502,72.5774 35.5,72.5C 36.3778,75.7328 37.3778,79.0661 38.5,82.5C 38.1084,85.5366 36.4417,87.5366 33.5,88.5C 28.1962,82.2896 25.1962,74.9563 24.5,66.5 Z"/></g>
<g><path style="opacity:1" fill="#3966a4" d="M 101.5,63.5 C 103.685,67.196 106.352,70.5293 109.5,73.5C 109.611,74.1174 109.944,74.6174 110.5,75C 108.968,75.6995 107.968,76.8662 107.5,78.5C 104.355,79.8032 101.355,79.8032 98.5,78.5C 96.8608,77.5275 95.5274,76.1942 94.5,74.5C 95.3984,73.8423 96.3984,73.1757 97.5,72.5C 98.6889,69.3657 100.022,66.3657 101.5,63.5 Z"/></g>
<g><path style="opacity:1" fill="#2e262c" d="M 187.5,74.5 C 187.509,76.3084 187.009,77.9751 186,79.5C 184.245,82.3775 182.412,85.0442 180.5,87.5C 180.5,86.5 180.5,85.5 180.5,84.5C 180.294,81.5049 180.96,78.8383 182.5,76.5C 182.351,77.552 182.517,78.552 183,79.5C 184.049,77.3825 185.549,75.7158 187.5,74.5 Z"/></g>
<g><path style="opacity:1" fill="#3c5ca3" d="M 81.5,76.5 C 81.8417,77.3382 82.5084,77.6716 83.5,77.5C 83.5,78.5 83.5,79.5 83.5,80.5C 83.1692,82.3224 82.5025,83.9891 81.5,85.5C 81.1667,85.5 80.8333,85.5 80.5,85.5C 79.925,83.5887 78.925,81.922 77.5,80.5C 77.5,79.8333 77.5,79.1667 77.5,78.5C 78.8333,77.8333 80.1667,77.1667 81.5,76.5 Z"/></g>
<g><path style="opacity:1" fill="#3994ec" d="M 125.5,67.5 C 126.609,67.5569 127.609,67.8902 128.5,68.5C 129.319,71.3054 129.819,74.3054 130,77.5C 131.011,76.6634 132.178,76.33 133.5,76.5C 133.5,78.1667 133.5,79.8333 133.5,81.5C 129.108,85.8972 124.442,89.8972 119.5,93.5C 119.611,92.8826 119.944,92.3826 120.5,92C 119.167,91.6667 117.833,91.3333 116.5,91C 118.381,88.1948 118.714,85.3614 117.5,82.5C 116.817,82.8627 116.15,83.1961 115.5,83.5C 113.883,84.038 112.216,84.3713 110.5,84.5C 112.443,79.9077 114.776,75.5744 117.5,71.5C 119.808,69.7969 122.474,68.4636 125.5,67.5 Z"/></g>
<g><path style="opacity:1" fill="#2c1b27" d="M 166.5,78.5 C 166.167,79.8333 165.833,81.1667 165.5,82.5C 163.046,84.2851 161.379,86.6185 160.5,89.5C 157.538,89.9547 154.871,91.1214 152.5,93C 150.527,93.4955 148.527,93.6621 146.5,93.5C 146.216,84.8716 147.549,76.5382 150.5,68.5C 155.773,69.3007 160.773,70.9673 165.5,73.5C 166.452,75.0453 166.785,76.712 166.5,78.5 Z"/></g>
<g><path style="opacity:1" fill="#3e585b" d="M 182.5,76.5 C 180.96,78.8383 180.294,81.5049 180.5,84.5C 179.833,84.5 179.167,84.5 178.5,84.5C 179.105,81.8733 179.605,79.2066 180,76.5C 180.899,74.6734 182.233,73.34 184,72.5C 184.5,72.6667 185,72.8333 185.5,73C 184.29,74.0391 183.29,75.2058 182.5,76.5 Z"/></g>
<g><path style="opacity:1" fill="#71767b" d="M 19.5,75.5 C 21.9195,79.0996 24.5862,82.5996 27.5,86C 26.9558,86.7172 26.2891,87.2172 25.5,87.5C 22.7454,84.0834 20.412,80.4167 18.5,76.5C 19.1667,76.5 19.5,76.1667 19.5,75.5 Z"/></g>
<g><path style="opacity:1" fill="#42325e" d="M 50.5,80.5 C 50.8333,80.5 51.1667,80.5 51.5,80.5C 51.5191,82.0603 51.8524,83.5603 52.5,85C 52.3613,86.301 51.6946,87.1344 50.5,87.5C 49.5829,84.9952 49.5829,82.6618 50.5,80.5 Z"/></g>
<g><path style="opacity:1" fill="#6c698a" d="M 64.5,78.5 C 65.9862,81.9552 65.6528,85.2885 63.5,88.5C 63.1667,88.5 62.8333,88.5 62.5,88.5C 62.5,87.5 62.5,86.5 62.5,85.5C 63.9238,83.4855 64.5905,81.1522 64.5,78.5 Z"/></g>
<g><path style="opacity:1" fill="#3487c9" d="M 96.5,68.5 C 95.9524,70.3936 94.9524,72.0603 93.5,73.5C 93.6236,74.1067 93.9569,74.44 94.5,74.5C 95.5274,76.1942 96.8608,77.5275 98.5,78.5C 97.5207,79.7653 96.5207,81.0986 95.5,82.5C 96.0522,84.0026 96.0522,85.6693 95.5,87.5C 93.0971,87.448 90.7638,87.7814 88.5,88.5C 86.5097,86.015 84.843,83.3483 83.5,80.5C 83.5,79.5 83.5,78.5 83.5,77.5C 85.2922,76.6909 87.2922,76.1909 89.5,76C 90.9993,73.6721 92.666,71.5054 94.5,69.5C 95.1667,69.1667 95.8333,68.8333 96.5,68.5 Z"/></g>
<g><path style="opacity:1" fill="#5f414a" d="M 24.5,66.5 C 25.1962,74.9563 28.1962,82.2896 33.5,88.5C 34.5116,89.8717 35.5116,91.205 36.5,92.5C 36.9321,93.7095 37.5987,94.7095 38.5,95.5C 38.4431,96.609 38.1098,97.609 37.5,98.5C 33.8105,95.8093 30.8105,92.476 28.5,88.5C 27.8933,88.6236 27.56,88.9569 27.5,89.5C 26.5,89.1667 25.8333,88.5 25.5,87.5C 26.2891,87.2172 26.9558,86.7172 27.5,86C 24.5862,82.5996 21.9195,79.0996 19.5,75.5C 18.559,70.9296 18.2256,66.263 18.5,61.5C 20.2572,60.708 21.5905,59.3747 22.5,57.5C 23.1674,60.6417 23.834,63.6417 24.5,66.5 Z"/></g>
<g><path style="opacity:1" fill="#614691" d="M 57.5,80.5 C 58.3964,83.127 58.2298,85.7936 57,88.5C 53.9986,90.3305 51.6652,92.6639 50,95.5C 49.5,95.1667 49,94.8333 48.5,94.5C 49.9501,93.1502 50.6168,91.4835 50.5,89.5C 50.5,88.8333 50.5,88.1667 50.5,87.5C 51.6946,87.1344 52.3613,86.301 52.5,85C 51.8524,83.5603 51.5191,82.0603 51.5,80.5C 51.5,78.5 51.5,76.5 51.5,74.5C 51.3573,72.7376 51.6906,71.0709 52.5,69.5C 53.1667,68.1667 53.8333,68.1667 54.5,69.5C 56.1167,73.014 57.1167,76.6807 57.5,80.5 Z"/></g>
<g><path style="opacity:1" fill="#287dce" d="M 117.5,71.5 C 114.776,75.5744 112.443,79.9077 110.5,84.5C 107.921,85.2276 105.254,85.7276 102.5,86C 98.9003,88.0649 96.5669,90.5649 95.5,93.5C 95.5,92.1667 95.5,90.8333 95.5,89.5C 92.9407,89.8016 90.6074,89.4682 88.5,88.5C 90.7638,87.7814 93.0971,87.448 95.5,87.5C 96.0522,85.6693 96.0522,84.0026 95.5,82.5C 96.5207,81.0986 97.5207,79.7653 98.5,78.5C 101.355,79.8032 104.355,79.8032 107.5,78.5C 107.968,76.8662 108.968,75.6995 110.5,75C 109.944,74.6174 109.611,74.1174 109.5,73.5C 110.833,73.5 112.167,73.5 113.5,73.5C 115.199,73.4729 116.533,72.8062 117.5,71.5 Z"/></g>
<g><path style="opacity:1" fill="#2fb2fd" d="M 119.5,93.5 C 117.184,94.8056 114.85,96.1389 112.5,97.5C 108.154,97.6657 103.821,97.499 99.5,97C 100.685,95.647 102.019,94.4803 103.5,93.5C 103.023,92.5224 102.357,91.6891 101.5,91C 106.749,89.3197 111.416,86.8197 115.5,83.5C 116.15,83.1961 116.817,82.8627 117.5,82.5C 118.714,85.3614 118.381,88.1948 116.5,91C 117.833,91.3333 119.167,91.6667 120.5,92C 119.944,92.3826 119.611,92.8826 119.5,93.5 Z"/></g>
<g><path style="opacity:1" fill="#534464" d="M 142.5,58.5 C 143.167,58.5 143.5,58.8333 143.5,59.5C 143.5,60.5 143.5,61.5 143.5,62.5C 144.313,68.8665 144.313,75.1998 143.5,81.5C 143.34,83.153 142.674,84.4863 141.5,85.5C 142.538,81.2048 142.538,76.8715 141.5,72.5C 142.43,68.6002 142.763,64.6002 142.5,60.5C 142.5,59.8333 142.5,59.1667 142.5,58.5 Z"/></g>
<g><path style="opacity:1" fill="#5e4880" d="M 57.5,80.5 C 57.8333,80.5 58.1667,80.5 58.5,80.5C 59.9163,82.1793 61.2497,83.8459 62.5,85.5C 62.5,86.5 62.5,87.5 62.5,88.5C 61.5,89.1667 60.5,89.8333 59.5,90.5C 55.7491,90.0824 53.5824,91.749 53,95.5C 51.1222,96.0527 49.6222,97.0527 48.5,98.5C 47.5,98.5 46.5,98.5 45.5,98.5C 45.5,97.1667 45.5,95.8333 45.5,94.5C 47.4032,93.0527 49.0699,91.386 50.5,89.5C 50.6168,91.4835 49.9501,93.1502 48.5,94.5C 49,94.8333 49.5,95.1667 50,95.5C 51.6652,92.6639 53.9986,90.3305 57,88.5C 58.2298,85.7936 58.3964,83.127 57.5,80.5 Z"/></g>
<g><path style="opacity:1" fill="#8490e2" d="M 67.5,72.5 C 68.933,75.2823 70.0997,78.2823 71,81.5C 71.7083,82.3805 72.5416,83.0472 73.5,83.5C 73.7497,85.674 74.7497,87.3406 76.5,88.5C 78.1667,89.8333 79.8333,91.1667 81.5,92.5C 81.5,93.1667 81.5,93.8333 81.5,94.5C 81.719,95.675 81.3857,96.675 80.5,97.5C 76.7009,95.1998 73.3676,92.3665 70.5,89C 69.2068,88.51 67.8734,88.3433 66.5,88.5C 66.9157,85.5941 67.5824,82.7607 68.5,80C 68.0828,77.5021 67.7495,75.0021 67.5,72.5 Z"/></g>
<g><path style="opacity:1" fill="#4d494c" d="M 187.5,73.5 C 188.641,76.6399 188.808,79.9733 188,83.5C 185.369,88.6409 182.869,93.6409 180.5,98.5C 180.5,94.8333 180.5,91.1667 180.5,87.5C 182.412,85.0442 184.245,82.3775 186,79.5C 187.009,77.9751 187.509,76.3084 187.5,74.5C 187.5,74.1667 187.5,73.8333 187.5,73.5 Z"/></g>
<g><path style="opacity:1" fill="#279ae4" d="M 137.5,84.5 C 136.026,85.4363 135.026,86.7697 134.5,88.5C 131.833,91.5 129.167,94.5 126.5,97.5C 126.189,96.5222 125.522,95.8555 124.5,95.5C 123.378,96.6302 122.044,97.2969 120.5,97.5C 126.405,93.102 131.905,88.102 137,82.5C 137.464,83.0944 137.631,83.7611 137.5,84.5 Z"/></g>
<g><path style="opacity:1" fill="#575b88" d="M 140.5,72.5 C 140.833,72.5 141.167,72.5 141.5,72.5C 142.538,76.8715 142.538,81.2048 141.5,85.5C 141.245,87.9674 140.245,89.9674 138.5,91.5C 138.5,89.1667 138.5,86.8333 138.5,84.5C 139.167,81.5 139.833,78.5 140.5,75.5C 140.5,74.5 140.5,73.5 140.5,72.5 Z"/></g>
<g><path style="opacity:1" fill="#435152" d="M 171.5,71.5 C 170.41,75.5432 169.41,79.5432 168.5,83.5C 166.787,84.6354 166.12,86.302 166.5,88.5C 165.883,88.6107 165.383,88.944 165,89.5C 164.51,88.2068 164.343,86.8734 164.5,85.5C 165.404,84.791 165.737,83.791 165.5,82.5C 165.833,81.1667 166.167,79.8333 166.5,78.5C 167.628,75.788 169.294,73.4547 171.5,71.5 Z"/></g>
<g><path style="opacity:1" fill="#101b44" d="M 77.5,80.5 C 78.925,81.922 79.925,83.5887 80.5,85.5C 80.9612,87.5504 81.6279,89.5504 82.5,91.5C 82.3764,92.1067 82.0431,92.44 81.5,92.5C 79.8333,91.1667 78.1667,89.8333 76.5,88.5C 75.2504,85.994 74.5838,83.3274 74.5,80.5C 75.5,80.5 76.5,80.5 77.5,80.5 Z"/></g>
<g><path style="opacity:1" fill="#331e24" d="M 168.5,83.5 C 168.833,83.5 169.167,83.5 169.5,83.5C 169.389,85.6477 170.056,85.981 171.5,84.5C 172.15,86.1836 173.15,87.5169 174.5,88.5C 173.08,91.2613 172.413,94.2613 172.5,97.5C 171.566,98.5676 171.232,99.901 171.5,101.5C 171.167,101.5 170.833,101.5 170.5,101.5C 170.631,100.761 170.464,100.094 170,99.5C 169.583,100.756 168.75,101.423 167.5,101.5C 168.435,98.8872 168.602,96.2205 168,93.5C 167.25,92.8742 166.416,92.3742 165.5,92C 166.337,90.9887 166.67,89.8221 166.5,88.5C 166.12,86.302 166.787,84.6354 168.5,83.5 Z"/></g>
<g><path style="opacity:1" fill="#3e2e5b" d="M 43.5,78.5 C 43.5,79.5 43.5,80.5 43.5,81.5C 41.4305,81.5827 41.0972,82.5827 42.5,84.5C 41.54,88.5282 40.2067,92.1949 38.5,95.5C 37.5987,94.7095 36.9321,93.7095 36.5,92.5C 38.2078,88.7297 39.5411,84.7297 40.5,80.5C 41.5178,79.8075 42.5178,79.1408 43.5,78.5 Z"/></g>
<g><path style="opacity:1" fill="#587278" d="M 177.5,87.5 C 177.5,88.5 177.5,89.5 177.5,90.5C 175.411,92.564 173.744,94.8974 172.5,97.5C 172.413,94.2613 173.08,91.2613 174.5,88.5C 175.391,87.8902 176.391,87.5569 177.5,87.5 Z"/></g>
<g><path style="opacity:1" fill="#65afba" d="M 195.5,86.5 C 193.854,88.6646 192.354,90.9979 191,93.5C 190.329,94.2524 189.496,94.5858 188.5,94.5C 190.024,90.7978 192.19,87.4645 195,84.5C 195.464,85.0944 195.631,85.7611 195.5,86.5 Z"/></g>
<g><path style="opacity:1" fill="#452935" d="M 197.5,82.5 C 199.5,82.5 201.5,82.5 203.5,82.5C 203.5,85.1667 203.5,87.8333 203.5,90.5C 199.232,91.3317 197.066,93.9984 197,98.5C 196.51,97.2068 196.343,95.8734 196.5,94.5C 196.5,92.8333 196.5,91.1667 196.5,89.5C 197.468,87.3926 197.802,85.0593 197.5,82.5 Z"/></g>
<g><path style="opacity:1" fill="#7e7f8b" d="M 37.5,98.5 C 37.5,98.8333 37.5,99.1667 37.5,99.5C 34.9066,98.2464 32.5732,96.5798 30.5,94.5C 29.925,92.5887 28.925,90.922 27.5,89.5C 27.56,88.9569 27.8933,88.6236 28.5,88.5C 30.8105,92.476 33.8105,95.8093 37.5,98.5 Z"/></g>
<g><path style="opacity:1" fill="#206db6" d="M 83.5,80.5 C 84.843,83.3483 86.5097,86.015 88.5,88.5C 90.6074,89.4682 92.9407,89.8016 95.5,89.5C 95.5,90.8333 95.5,92.1667 95.5,93.5C 91.9952,93.6941 91.6618,94.6941 94.5,96.5C 93.448,96.6495 92.448,96.4828 91.5,96C 89.6512,93.4928 87.3178,91.6595 84.5,90.5C 83.7515,88.6675 82.7515,87.0009 81.5,85.5C 82.5025,83.9891 83.1692,82.3224 83.5,80.5 Z"/></g>
<g><path style="opacity:1" fill="#362a43" d="M 43.5,81.5 C 44.6579,84.2697 44.6579,87.103 43.5,90C 43.9756,93.1555 44.3089,92.9888 44.5,89.5C 46.8583,89.7475 48.8583,89.0808 50.5,87.5C 50.5,88.1667 50.5,88.8333 50.5,89.5C 49.0699,91.386 47.4032,93.0527 45.5,94.5C 43.4672,96.5389 41.8006,98.8722 40.5,101.5C 38.8212,101.715 37.8212,101.048 37.5,99.5C 37.5,99.1667 37.5,98.8333 37.5,98.5C 38.1098,97.609 38.4431,96.609 38.5,95.5C 40.2067,92.1949 41.54,88.5282 42.5,84.5C 41.0972,82.5827 41.4305,81.5827 43.5,81.5 Z"/></g>
<g><path style="opacity:1" fill="#342e42" d="M 59.5,90.5 C 58.1667,93.1667 56.8333,95.8333 55.5,98.5C 54.8333,98.5 54.5,98.8333 54.5,99.5C 52.2646,99.7947 50.2646,99.4614 48.5,98.5C 49.6222,97.0527 51.1222,96.0527 53,95.5C 53.5824,91.749 55.7491,90.0824 59.5,90.5 Z"/></g>
<g><path style="opacity:1" fill="#180d15" d="M 157.5,65.5 C 164.804,66.3021 172.138,66.6354 179.5,66.5C 181.292,67.3091 183.292,67.8091 185.5,68C 183.483,68.6743 181.817,69.8409 180.5,71.5C 179.833,71.1667 179.167,70.8333 178.5,70.5C 177.378,71.6302 176.044,72.2969 174.5,72.5C 173.609,71.8902 172.609,71.5569 171.5,71.5C 169.294,73.4547 167.628,75.788 166.5,78.5C 166.785,76.712 166.452,75.0453 165.5,73.5C 160.773,70.9673 155.773,69.3007 150.5,68.5C 147.549,76.5382 146.216,84.8716 146.5,93.5C 148.527,93.6621 150.527,93.4955 152.5,93C 154.871,91.1214 157.538,89.9547 160.5,89.5C 161.379,86.6185 163.046,84.2851 165.5,82.5C 165.737,83.791 165.404,84.791 164.5,85.5C 162.943,91.2614 162.276,97.2614 162.5,103.5C 160.937,104.945 159.604,106.611 158.5,108.5C 157.5,108.833 156.833,109.5 156.5,110.5C 153.881,110.925 151.547,111.925 149.5,113.5C 147.897,113.688 146.563,113.188 145.5,112C 147.423,109.485 149.09,106.818 150.5,104C 147.968,100.969 145.634,97.8027 143.5,94.5C 142.575,95.3569 141.908,96.3569 141.5,97.5C 140.662,97.1583 140.328,96.4916 140.5,95.5C 143.863,90.3928 145.529,84.7261 145.5,78.5C 145.368,75.4299 145.701,72.4299 146.5,69.5C 147.161,68.2825 147.828,66.9492 148.5,65.5C 150.833,66.1667 153.167,66.8333 155.5,67.5C 156.182,66.7573 156.849,66.0906 157.5,65.5 Z"/></g>
<g><path style="opacity:1" fill="#83d9e1" d="M 62.5,88.5 C 62.8333,88.5 63.1667,88.5 63.5,88.5C 64.3382,88.8417 64.6716,89.5084 64.5,90.5C 63.8902,91.391 63.5569,92.391 63.5,93.5C 61.457,94.5794 60.1237,96.246 59.5,98.5C 58.5318,100.607 58.1984,102.941 58.5,105.5C 57.713,107.104 56.3797,107.771 54.5,107.5C 56.9272,106.356 57.9272,104.356 57.5,101.5C 57.3333,100.167 57.1667,98.8333 57,97.5C 56.6174,98.056 56.1174,98.3893 55.5,98.5C 56.8333,95.8333 58.1667,93.1667 59.5,90.5C 60.5,89.8333 61.5,89.1667 62.5,88.5 Z"/></g>
<g><path style="opacity:1" fill="#7d6795" d="M 17.5,76.5 C 17.8333,76.5 18.1667,76.5 18.5,76.5C 20.412,80.4167 22.7454,84.0834 25.5,87.5C 25.8333,88.5 26.5,89.1667 27.5,89.5C 28.925,90.922 29.925,92.5887 30.5,94.5C 28.4305,94.5514 26.5971,93.8847 25,92.5C 24.228,92.6448 23.5613,92.9781 23,93.5C 22.51,92.2068 22.3433,90.8734 22.5,89.5C 21.5,89.5 20.5,89.5 19.5,89.5C 19.3398,91.1992 19.5065,92.8659 20,94.5C 21.7482,96.1352 22.9149,98.1352 23.5,100.5C 24.7481,101.04 25.9148,101.707 27,102.5C 30.2629,100.16 32.4296,101.16 33.5,105.5C 33.4712,107.029 32.8045,108.196 31.5,109C 33.5938,110.352 35.9272,110.852 38.5,110.5C 36.5,111.833 34.5,113.167 32.5,114.5C 30.1667,114.5 27.8333,114.5 25.5,114.5C 26.2066,112.866 27.3732,111.532 29,110.5C 29.4828,109.552 29.6495,108.552 29.5,107.5C 25.5733,107.744 23.24,105.91 22.5,102C 20.8659,101.506 19.1992,101.34 17.5,101.5C 17.5191,99.9397 17.8524,98.4397 18.5,97C 17.5811,94.0731 16.5811,91.2398 15.5,88.5C 15.3898,86.626 16.0564,85.126 17.5,84C 14.6212,82.3342 13.7879,79.8342 15,76.5C 15.7697,75.4019 16.603,75.4019 17.5,76.5 Z"/></g>
<g><path style="opacity:1" fill="#259beb" d="M 115.5,83.5 C 111.416,86.8197 106.749,89.3197 101.5,91C 102.357,91.6891 103.023,92.5224 103.5,93.5C 102.019,94.4803 100.685,95.647 99.5,97C 103.821,97.499 108.154,97.6657 112.5,97.5C 106.504,98.9782 100.504,98.6449 94.5,96.5C 91.6618,94.6941 91.9952,93.6941 95.5,93.5C 96.5669,90.5649 98.9003,88.0649 102.5,86C 105.254,85.7276 107.921,85.2276 110.5,84.5C 112.216,84.3713 113.883,84.038 115.5,83.5 Z"/></g>
<g><path style="opacity:1" fill="#7adbe7" d="M 195.5,86.5 C 196.404,87.209 196.737,88.209 196.5,89.5C 196.5,91.1667 196.5,92.8333 196.5,94.5C 195.525,97.3112 194.858,100.311 194.5,103.5C 190.468,103.186 187.135,104.519 184.5,107.5C 183.903,107.265 183.57,106.765 183.5,106C 184.409,103.105 185.409,100.272 186.5,97.5C 186.932,96.2905 187.599,95.2905 188.5,94.5C 189.496,94.5858 190.329,94.2524 191,93.5C 192.354,90.9979 193.854,88.6646 195.5,86.5 Z"/></g>
<g><path style="opacity:1" fill="#133873" d="M 80.5,85.5 C 80.8333,85.5 81.1667,85.5 81.5,85.5C 82.7515,87.0009 83.7515,88.6675 84.5,90.5C 85.0256,92.2303 86.0256,93.5637 87.5,94.5C 87.8432,96.4832 87.1765,97.8166 85.5,98.5C 84.8333,98.1667 84.1667,97.8333 83.5,97.5C 83.0679,96.2905 82.4013,95.2905 81.5,94.5C 81.5,93.8333 81.5,93.1667 81.5,92.5C 82.0431,92.44 82.3764,92.1067 82.5,91.5C 81.6279,89.5504 80.9612,87.5504 80.5,85.5 Z"/></g>
<g><path style="opacity:1" fill="#2664aa" d="M 134.5,88.5 C 135.043,88.56 135.376,88.8933 135.5,89.5C 132.186,94.1461 128.519,98.4795 124.5,102.5C 120.52,104.332 116.52,106.165 112.5,108C 115.71,107.258 119.043,106.758 122.5,106.5C 119.237,108.568 115.57,109.568 111.5,109.5C 109.901,108.438 108.234,108.438 106.5,109.5C 103.968,108.404 101.635,107.071 99.5,105.5C 103.85,106.216 108.183,105.883 112.5,104.5C 117.981,103.76 122.648,101.426 126.5,97.5C 129.167,94.5 131.833,91.5 134.5,88.5 Z"/></g>
<g><path style="opacity:1" fill="#36192a" d="M 203.5,92.5 C 203.5,94.8333 203.5,97.1667 203.5,99.5C 201.711,100.877 199.711,101.877 197.5,102.5C 199,98.827 201,95.4937 203.5,92.5 Z"/></g>
<g><path style="opacity:1" fill="#896fa5" d="M 30.5,94.5 C 32.5732,96.5798 34.9066,98.2464 37.5,99.5C 37.8212,101.048 38.8212,101.715 40.5,101.5C 45.1667,101.167 49.8333,100.833 54.5,100.5C 50.185,105.331 44.8516,108.665 38.5,110.5C 35.9272,110.852 33.5938,110.352 31.5,109C 32.8045,108.196 33.4712,107.029 33.5,105.5C 32.4296,101.16 30.2629,100.16 27,102.5C 25.9148,101.707 24.7481,101.04 23.5,100.5C 22.9149,98.1352 21.7482,96.1352 20,94.5C 19.5065,92.8659 19.3398,91.1992 19.5,89.5C 20.5,89.5 21.5,89.5 22.5,89.5C 22.3433,90.8734 22.51,92.2068 23,93.5C 23.5613,92.9781 24.228,92.6448 25,92.5C 26.5971,93.8847 28.4305,94.5514 30.5,94.5 Z"/></g>
<g><path style="opacity:1" fill="#5f70bc" d="M 66.5,88.5 C 67.8734,88.3433 69.2068,88.51 70.5,89C 73.3676,92.3665 76.7009,95.1998 80.5,97.5C 81.3857,96.675 81.719,95.675 81.5,94.5C 82.4013,95.2905 83.0679,96.2905 83.5,97.5C 82.9033,97.7352 82.5699,98.2352 82.5,99C 84.1119,100.482 85.1119,102.315 85.5,104.5C 82.0189,104.067 79.6856,105.401 78.5,108.5C 78.2606,106.533 78.5939,104.699 79.5,103C 77.5203,100.836 75.187,99.3356 72.5,98.5C 69.8127,98.6641 67.146,98.4974 64.5,98C 63.6198,96.6439 63.2865,95.1439 63.5,93.5C 63.5569,92.391 63.8902,91.391 64.5,90.5C 65.5,90.1667 66.1667,89.5 66.5,88.5 Z"/></g>
<g><path style="opacity:1" fill="#2769d8" d="M 84.5,90.5 C 87.3178,91.6595 89.6512,93.4928 91.5,96C 92.448,96.4828 93.448,96.6495 94.5,96.5C 94.5858,97.4959 94.2524,98.3292 93.5,99C 94.756,99.4169 95.4226,100.25 95.5,101.5C 94.8333,101.5 94.1667,101.5 93.5,101.5C 91.4707,99.1415 89.4707,96.8082 87.5,94.5C 86.0256,93.5637 85.0256,92.2303 84.5,90.5 Z"/></g>
<g><path style="opacity:1" fill="#222645" d="M 145.5,78.5 C 145.529,84.7261 143.863,90.3928 140.5,95.5C 136.485,99.5126 132.152,103.179 127.5,106.5C 131.233,102.773 134.566,98.7728 137.5,94.5C 137.557,93.391 137.89,92.391 138.5,91.5C 140.245,89.9674 141.245,87.9674 141.5,85.5C 142.674,84.4863 143.34,83.153 143.5,81.5C 144.167,80.5 144.833,79.5 145.5,78.5 Z"/></g>
<g><path style="opacity:1" fill="#57434f" d="M 203.5,90.5 C 203.5,91.1667 203.5,91.8333 203.5,92.5C 201,95.4937 199,98.827 197.5,102.5C 196.833,102.5 196.5,102.833 196.5,103.5C 195.833,104.833 195.167,104.833 194.5,103.5C 194.858,100.311 195.525,97.3112 196.5,94.5C 196.343,95.8734 196.51,97.2068 197,98.5C 197.066,93.9984 199.232,91.3317 203.5,90.5 Z"/></g>
<g><path style="opacity:1" fill="#0f59a7" d="M 140.5,75.5 C 139.833,78.5 139.167,81.5 138.5,84.5C 138.167,84.5 137.833,84.5 137.5,84.5C 137.631,83.7611 137.464,83.0944 137,82.5C 131.905,88.102 126.405,93.102 120.5,97.5C 117.422,99.3687 114.089,100.702 110.5,101.5C 105.5,101.5 100.5,101.5 95.5,101.5C 95.4226,100.25 94.756,99.4169 93.5,99C 94.2524,98.3292 94.5858,97.4959 94.5,96.5C 100.504,98.6449 106.504,98.9782 112.5,97.5C 114.85,96.1389 117.184,94.8056 119.5,93.5C 124.442,89.8972 129.108,85.8972 133.5,81.5C 135.483,81.8432 136.817,81.1765 137.5,79.5C 138.512,78.1283 139.512,76.795 140.5,75.5 Z"/></g>
<g><path style="opacity:1" fill="#442126" d="M 164.5,85.5 C 164.343,86.8734 164.51,88.2068 165,89.5C 165.383,88.944 165.883,88.6107 166.5,88.5C 166.67,89.8221 166.337,90.9887 165.5,92C 166.416,92.3742 167.25,92.8742 168,93.5C 168.602,96.2205 168.435,98.8872 167.5,101.5C 166.512,102.795 165.512,104.128 164.5,105.5C 162.797,106.66 162.131,105.993 162.5,103.5C 162.276,97.2614 162.943,91.2614 164.5,85.5 Z"/></g>
<g><path style="opacity:1" fill="#483763" d="M 45.5,94.5 C 45.5,95.8333 45.5,97.1667 45.5,98.5C 46.5,98.5 47.5,98.5 48.5,98.5C 50.2646,99.4614 52.2646,99.7947 54.5,99.5C 54.5,99.8333 54.5,100.167 54.5,100.5C 49.8333,100.833 45.1667,101.167 40.5,101.5C 41.8006,98.8722 43.4672,96.5389 45.5,94.5 Z"/></g>
<g><path style="opacity:1" fill="#63abb3" d="M 177.5,90.5 C 177.461,91.5832 177.127,92.5832 176.5,93.5C 177.025,94.1924 177.692,94.6924 178.5,95C 176.06,99.7058 174.06,104.539 172.5,109.5C 172.425,106.794 172.092,104.127 171.5,101.5C 171.232,99.901 171.566,98.5676 172.5,97.5C 173.744,94.8974 175.411,92.564 177.5,90.5 Z"/></g>
<g><path style="opacity:1" fill="#36d2f7" d="M 126.5,97.5 C 122.648,101.426 117.981,103.76 112.5,104.5C 111.833,103.833 111.167,103.167 110.5,102.5C 110.5,102.167 110.5,101.833 110.5,101.5C 114.089,100.702 117.422,99.3687 120.5,97.5C 122.044,97.2969 123.378,96.6302 124.5,95.5C 125.522,95.8555 126.189,96.5222 126.5,97.5 Z"/></g>
<g><path style="opacity:1" fill="#2a1e2a" d="M 149.5,113.5 C 149.5,113.833 149.5,114.167 149.5,114.5C 131.833,114.5 114.167,114.5 96.5,114.5C 97.8062,113.533 98.4729,112.199 98.5,110.5C 99.791,110.263 100.791,110.596 101.5,111.5C 106.59,113.748 111.924,114.081 117.5,112.5C 128.119,111.522 136.119,106.522 141.5,97.5C 141.908,96.3569 142.575,95.3569 143.5,94.5C 145.634,97.8027 147.968,100.969 150.5,104C 149.09,106.818 147.423,109.485 145.5,112C 146.563,113.188 147.897,113.688 149.5,113.5 Z"/></g>
<g><path style="opacity:1" fill="#4276c6" d="M 87.5,94.5 C 89.4707,96.8082 91.4707,99.1415 93.5,101.5C 92.6457,102.632 92.6457,103.965 93.5,105.5C 91.5,105.167 89.5,104.833 87.5,104.5C 87.7475,102.142 87.0808,100.142 85.5,98.5C 87.1765,97.8166 87.8432,96.4832 87.5,94.5 Z"/></g>
<g><path style="opacity:1" fill="#331d21" d="M 197.5,82.5 C 197.802,85.0593 197.468,87.3926 196.5,89.5C 196.737,88.209 196.404,87.209 195.5,86.5C 195.631,85.7611 195.464,85.0944 195,84.5C 192.19,87.4645 190.024,90.7978 188.5,94.5C 187.599,95.2905 186.932,96.2905 186.5,97.5C 184.53,99.6467 182.697,101.98 181,104.5C 180.51,103.207 180.343,101.873 180.5,100.5C 180.5,99.8333 180.5,99.1667 180.5,98.5C 182.869,93.6409 185.369,88.6409 188,83.5C 188.808,79.9733 188.641,76.6399 187.5,73.5C 187.369,72.6236 187.702,71.9569 188.5,71.5C 188.792,75.1872 190.459,78.0205 193.5,80C 192.216,81.2975 192.383,82.4642 194,83.5C 195.011,82.6634 196.178,82.33 197.5,82.5 Z"/></g>
<g><path style="opacity:1" fill="#3fa3e8" d="M 93.5,101.5 C 94.1667,101.5 94.8333,101.5 95.5,101.5C 100.5,101.5 105.5,101.5 110.5,101.5C 110.5,101.833 110.5,102.167 110.5,102.5C 106.829,102.722 103.163,103.056 99.5,103.5C 97.3603,103.556 95.6936,104.223 94.5,105.5C 94.1667,105.5 93.8333,105.5 93.5,105.5C 92.6457,103.965 92.6457,102.632 93.5,101.5 Z"/></g>
<g><path style="opacity:1" fill="#5777b7" d="M 137.5,84.5 C 137.833,84.5 138.167,84.5 138.5,84.5C 138.5,86.8333 138.5,89.1667 138.5,91.5C 137.89,92.391 137.557,93.391 137.5,94.5C 133.5,97.8333 129.5,101.167 125.5,104.5C 125.672,103.508 125.338,102.842 124.5,102.5C 128.519,98.4795 132.186,94.1461 135.5,89.5C 135.376,88.8933 135.043,88.56 134.5,88.5C 135.026,86.7697 136.026,85.4363 137.5,84.5 Z"/></g>
<g><path style="opacity:1" fill="#4e528c" d="M 203.5,99.5 C 203.5,100.833 203.5,102.167 203.5,103.5C 201.167,103.5 198.833,103.5 196.5,103.5C 196.5,102.833 196.833,102.5 197.5,102.5C 199.711,101.877 201.711,100.877 203.5,99.5 Z"/></g>
<g><path style="opacity:1" fill="#4eeafa" d="M 110.5,102.5 C 111.167,103.167 111.833,103.833 112.5,104.5C 108.183,105.883 103.85,106.216 99.5,105.5C 97.965,104.646 96.6316,104.646 95.5,105.5C 95.1667,105.5 94.8333,105.5 94.5,105.5C 95.6936,104.223 97.3603,103.556 99.5,103.5C 103.163,103.056 106.829,102.722 110.5,102.5 Z"/></g>
<g><path style="opacity:1" fill="#71a4da" d="M 124.5,102.5 C 125.338,102.842 125.672,103.508 125.5,104.5C 124.5,105.167 123.5,105.833 122.5,106.5C 119.043,106.758 115.71,107.258 112.5,108C 116.52,106.165 120.52,104.332 124.5,102.5 Z"/></g>
<g><path style="opacity:1" fill="#160f14" d="M 170.5,101.5 C 170.739,105.842 171.073,110.176 171.5,114.5C 169.833,114.5 168.167,114.5 166.5,114.5C 166.011,113.005 165.345,111.671 164.5,110.5C 165.72,108.716 165.72,107.05 164.5,105.5C 165.512,104.128 166.512,102.795 167.5,101.5C 168.75,101.423 169.583,100.756 170,99.5C 170.464,100.094 170.631,100.761 170.5,101.5 Z"/></g>
<g><path style="opacity:1" fill="#7792c7" d="M 63.5,93.5 C 63.2865,95.1439 63.6198,96.6439 64.5,98C 67.146,98.4974 69.8127,98.6641 72.5,98.5C 74.3127,100.106 75.646,102.106 76.5,104.5C 76.3601,106.03 75.6935,107.03 74.5,107.5C 74.851,103.531 73.1843,100.864 69.5,99.5C 66.4649,100.061 63.4649,100.727 60.5,101.5C 59.6143,100.675 59.281,99.675 59.5,98.5C 60.1237,96.246 61.457,94.5794 63.5,93.5 Z"/></g>
<g><path style="opacity:1" fill="#201e32" d="M 140.5,95.5 C 140.328,96.4916 140.662,97.1583 141.5,97.5C 136.119,106.522 128.119,111.522 117.5,112.5C 118.5,111.833 119.5,111.167 120.5,110.5C 122.833,109.167 125.167,107.833 127.5,106.5C 132.152,103.179 136.485,99.5126 140.5,95.5 Z"/></g>
<g><path style="opacity:1" fill="#6dc3cc" d="M 178.5,84.5 C 179.167,84.5 179.833,84.5 180.5,84.5C 180.5,85.5 180.5,86.5 180.5,87.5C 180.5,91.1667 180.5,94.8333 180.5,98.5C 180.5,99.1667 180.5,99.8333 180.5,100.5C 179.533,101.806 178.199,102.473 176.5,102.5C 175.512,106.484 174.512,110.484 173.5,114.5C 173.167,114.5 172.833,114.5 172.5,114.5C 172.5,112.833 172.5,111.167 172.5,109.5C 174.06,104.539 176.06,99.7058 178.5,95C 177.692,94.6924 177.025,94.1924 176.5,93.5C 177.127,92.5832 177.461,91.5832 177.5,90.5C 177.5,89.5 177.5,88.5 177.5,87.5C 178.11,86.609 178.443,85.609 178.5,84.5 Z"/></g>
<g><path style="opacity:1" fill="#7387c7" d="M 72.5,98.5 C 75.187,99.3356 77.5203,100.836 79.5,103C 78.5939,104.699 78.2606,106.533 78.5,108.5C 79.1495,110.435 79.4828,112.435 79.5,114.5C 74.8333,114.5 70.1667,114.5 65.5,114.5C 66.0905,112.903 67.0905,111.569 68.5,110.5C 70.7451,109.792 72.7451,108.792 74.5,107.5C 75.6935,107.03 76.3601,106.03 76.5,104.5C 75.646,102.106 74.3127,100.106 72.5,98.5 Z"/></g>
<g><path style="opacity:1" fill="#3d6066" d="M 170.5,101.5 C 170.833,101.5 171.167,101.5 171.5,101.5C 172.092,104.127 172.425,106.794 172.5,109.5C 172.5,111.167 172.5,112.833 172.5,114.5C 172.167,114.5 171.833,114.5 171.5,114.5C 171.073,110.176 170.739,105.842 170.5,101.5 Z"/></g>
<g><path style="opacity:1" fill="#495596" d="M 85.5,104.5 C 87.3195,105.063 88.6529,106.229 89.5,108C 87.2354,109.757 85.5687,111.924 84.5,114.5C 82.8333,114.5 81.1667,114.5 79.5,114.5C 79.4828,112.435 79.1495,110.435 78.5,108.5C 79.6856,105.401 82.0189,104.067 85.5,104.5 Z"/></g>
<g><path style="opacity:1" fill="#5680b8" d="M 83.5,97.5 C 84.1667,97.8333 84.8333,98.1667 85.5,98.5C 87.0808,100.142 87.7475,102.142 87.5,104.5C 89.5,104.833 91.5,105.167 93.5,105.5C 93.8333,105.5 94.1667,105.5 94.5,105.5C 94.8333,105.5 95.1667,105.5 95.5,105.5C 96.8333,106.5 98.1667,107.5 99.5,108.5C 97.3897,109.117 95.2231,108.783 93,107.5C 90.5214,109.966 88.0214,112.299 85.5,114.5C 85.1667,114.5 84.8333,114.5 84.5,114.5C 85.5687,111.924 87.2354,109.757 89.5,108C 88.6529,106.229 87.3195,105.063 85.5,104.5C 85.1119,102.315 84.1119,100.482 82.5,99C 82.5699,98.2352 82.9033,97.7352 83.5,97.5 Z"/></g>
<g><path style="opacity:1" fill="#3e4e7a" d="M 137.5,94.5 C 134.566,98.7728 131.233,102.773 127.5,106.5C 125.167,107.833 122.833,109.167 120.5,110.5C 117.5,110.5 114.5,110.5 111.5,110.5C 111.5,110.167 111.5,109.833 111.5,109.5C 115.57,109.568 119.237,108.568 122.5,106.5C 123.5,105.833 124.5,105.167 125.5,104.5C 129.5,101.167 133.5,97.8333 137.5,94.5 Z"/></g>
<g><path style="opacity:1" fill="#68a3c8" d="M 194.5,103.5 C 195.167,104.833 195.833,104.833 196.5,103.5C 198.833,103.5 201.167,103.5 203.5,103.5C 203.5,104.833 203.5,106.167 203.5,107.5C 197.55,107.977 192.55,110.311 188.5,114.5C 184.833,114.5 181.167,114.5 177.5,114.5C 179.527,111.806 181.861,109.473 184.5,107.5C 187.135,104.519 190.468,103.186 194.5,103.5 Z"/></g>
<g><path style="opacity:1" fill="#736089" d="M 15.5,71.5 C 16.5375,72.9303 17.2041,74.597 17.5,76.5C 16.603,75.4019 15.7697,75.4019 15,76.5C 13.7879,79.8342 14.6212,82.3342 17.5,84C 16.0564,85.126 15.3898,86.626 15.5,88.5C 16.5811,91.2398 17.5811,94.0731 18.5,97C 17.8524,98.4397 17.5191,99.9397 17.5,101.5C 19.1992,101.34 20.8659,101.506 22.5,102C 23.24,105.91 25.5733,107.744 29.5,107.5C 29.6495,108.552 29.4828,109.552 29,110.5C 27.3732,111.532 26.2066,112.866 25.5,114.5C 25.1667,114.5 24.8333,114.5 24.5,114.5C 24.5,113.5 24.5,112.5 24.5,111.5C 21.2784,111.892 18.2784,111.392 15.5,110C 17.019,108.649 18.3523,107.149 19.5,105.5C 18.027,103.605 16.3603,101.939 14.5,100.5C 14.9312,99.7065 15.2645,98.8732 15.5,98C 12.6403,92.006 9.97362,85.506 7.5,78.5C 8.2739,77.2888 9.10723,77.2888 10,78.5C 10.9562,75.6229 12.2895,72.9562 14,70.5C 14.3826,71.056 14.8826,71.3893 15.5,71.5 Z"/></g>
<g><path style="opacity:1" fill="#83eaee" d="M 54.5,107.5 C 51.2157,109.117 48.5491,111.45 46.5,114.5C 41.8333,114.5 37.1667,114.5 32.5,114.5C 34.5,113.167 36.5,111.833 38.5,110.5C 44.8516,108.665 50.185,105.331 54.5,100.5C 54.5,100.167 54.5,99.8333 54.5,99.5C 54.5,98.8333 54.8333,98.5 55.5,98.5C 56.1174,98.3893 56.6174,98.056 57,97.5C 57.1667,98.8333 57.3333,100.167 57.5,101.5C 57.9272,104.356 56.9272,106.356 54.5,107.5 Z"/></g>
<g><path style="opacity:1" fill="#7091c3" d="M 58.5,105.5 C 60.5,105.5 62.5,105.5 64.5,105.5C 64.719,106.675 64.3857,107.675 63.5,108.5C 61.4848,110.576 59.4848,112.576 57.5,114.5C 53.8333,114.5 50.1667,114.5 46.5,114.5C 48.5491,111.45 51.2157,109.117 54.5,107.5C 56.3797,107.771 57.713,107.104 58.5,105.5 Z"/></g>
<g><path style="opacity:1" fill="#c2cbe7" d="M 99.5,105.5 C 101.635,107.071 103.968,108.404 106.5,109.5C 106.083,110.124 105.416,110.457 104.5,110.5C 102.823,109.813 101.156,109.146 99.5,108.5C 98.1667,107.5 96.8333,106.5 95.5,105.5C 96.6316,104.646 97.965,104.646 99.5,105.5 Z"/></g>
<g><path style="opacity:1" fill="#354347" d="M 162.5,103.5 C 162.131,105.993 162.797,106.66 164.5,105.5C 165.72,107.05 165.72,108.716 164.5,110.5C 162.858,108.919 160.858,108.253 158.5,108.5C 159.604,106.611 160.937,104.945 162.5,103.5 Z"/></g>
<g><path style="opacity:1" fill="#80c0de" d="M 59.5,98.5 C 59.281,99.675 59.6143,100.675 60.5,101.5C 63.4649,100.727 66.4649,100.061 69.5,99.5C 73.1843,100.864 74.851,103.531 74.5,107.5C 72.7451,108.792 70.7451,109.792 68.5,110.5C 67.0905,111.569 66.0905,112.903 65.5,114.5C 62.8333,114.5 60.1667,114.5 57.5,114.5C 59.4848,112.576 61.4848,110.576 63.5,108.5C 64.3857,107.675 64.719,106.675 64.5,105.5C 62.5,105.5 60.5,105.5 58.5,105.5C 58.1984,102.941 58.5318,100.607 59.5,98.5 Z"/></g>
<g><path style="opacity:1" fill="#536693" d="M 99.5,108.5 C 101.156,109.146 102.823,109.813 104.5,110.5C 105.416,110.457 106.083,110.124 106.5,109.5C 108.234,108.438 109.901,108.438 111.5,109.5C 111.5,109.833 111.5,110.167 111.5,110.5C 108.375,111.479 105.042,111.813 101.5,111.5C 100.791,110.596 99.791,110.263 98.5,110.5C 98.4729,112.199 97.8062,113.533 96.5,114.5C 95.1667,114.5 93.8333,114.5 92.5,114.5C 93.4525,112.39 95.1192,111.223 97.5,111C 95.6631,109.52 93.6631,109.52 91.5,111C 90.1772,111.816 89.5106,112.983 89.5,114.5C 88.1667,114.5 86.8333,114.5 85.5,114.5C 88.0214,112.299 90.5214,109.966 93,107.5C 95.2231,108.783 97.3897,109.117 99.5,108.5 Z"/></g>
<g><path style="opacity:1" fill="#5a90ba" d="M 92.5,114.5 C 91.5,114.5 90.5,114.5 89.5,114.5C 89.5106,112.983 90.1772,111.816 91.5,111C 93.6631,109.52 95.6631,109.52 97.5,111C 95.1192,111.223 93.4525,112.39 92.5,114.5 Z"/></g>
<g><path style="opacity:1" fill="#6bafc1" d="M 156.5,110.5 C 155.5,111.833 154.5,113.167 153.5,114.5C 152.167,114.5 150.833,114.5 149.5,114.5C 149.5,114.167 149.5,113.833 149.5,113.5C 151.547,111.925 153.881,110.925 156.5,110.5 Z"/></g>
<g><path style="opacity:1" fill="#79d5e2" d="M 158.5,108.5 C 160.858,108.253 162.858,108.919 164.5,110.5C 164.5,111.5 164.5,112.5 164.5,113.5C 163.209,113.263 162.209,113.596 161.5,114.5C 158.833,114.5 156.167,114.5 153.5,114.5C 154.5,113.167 155.5,111.833 156.5,110.5C 156.833,109.5 157.5,108.833 158.5,108.5 Z"/></g>
<g><path style="opacity:1" fill="#5b9ea7" d="M 186.5,97.5 C 185.409,100.272 184.409,103.105 183.5,106C 183.57,106.765 183.903,107.265 184.5,107.5C 181.861,109.473 179.527,111.806 177.5,114.5C 176.167,114.5 174.833,114.5 173.5,114.5C 174.512,110.484 175.512,106.484 176.5,102.5C 178.199,102.473 179.533,101.806 180.5,100.5C 180.343,101.873 180.51,103.207 181,104.5C 182.697,101.98 184.53,99.6467 186.5,97.5 Z"/></g>
<g><path style="opacity:1" fill="#607bb9" d="M 203.5,107.5 C 203.5,109.833 203.5,112.167 203.5,114.5C 198.5,114.5 193.5,114.5 188.5,114.5C 192.55,110.311 197.55,107.977 203.5,107.5 Z"/></g>
<g><path style="opacity:1" fill="#373755" d="M 111.5,110.5 C 114.5,110.5 117.5,110.5 120.5,110.5C 119.5,111.167 118.5,111.833 117.5,112.5C 111.924,114.081 106.59,113.748 101.5,111.5C 105.042,111.813 108.375,111.479 111.5,110.5 Z"/></g>
<g><path style="opacity:1" fill="#517789" d="M 164.5,110.5 C 165.345,111.671 166.011,113.005 166.5,114.5C 164.833,114.5 163.167,114.5 161.5,114.5C 162.209,113.596 163.209,113.263 164.5,113.5C 164.5,112.5 164.5,111.5 164.5,110.5 Z"/></g>
</svg>
